<svg xmlns="http://www.w3.org/2000/svg"><symbol viewBox="0 0 1440 253" id="MriyaResort" xmlns="http://www.w3.org/2000/svg"><path d="M-35 191.334h53.373v-5.849l-11.21-.732c-7.068-.731-11.455-1.95-10.724-8.774L6.188 17.062l67.996 143.074h1.462l67.752-143.318 9.749 159.161c.731 6.824-3.656 8.043-11.211 8.774l-10.723.732v5.849h68.727v-5.849l-10.967-.732c-7.555-.731-10.48-1.95-11.211-8.774l-9.749-154.043c-.731-6.824 3.656-8.043 11.211-8.774l10.967-.731V6.58H138.28L83.688 122.113 29.097 6.581h-54.349v5.85l10.968.73c7.067.732 11.698 1.95 10.967 8.775l-9.749 154.043c-.73 6.824-4.143 8.043-11.21 8.774l-10.724.732v5.849zm251.805 0h63.366v-5.606l-13.161-.731c-8.53-.244-9.504-1.219-9.504-7.8v-60.203c0-17.549 9.017-29.98 37.531-28.03l9.505.975V66.784h-2.193c-21.203 0-38.751 10.48-44.843 36.805V65.078l-40.701 15.6v1.462l17.792 9.993v85.064c0 6.581-1.219 7.8-9.262 8.044l-8.53.487v5.606zm102.364 0h58.491v-5.606l-8.286-.487c-7.799-.731-9.505-1.463-9.505-8.044V65.078l-40.7 15.6v1.462l17.791 9.993v85.064c0 6.581-1.706 7.313-9.261 8.044l-8.53.487v5.606zm13.648-175.978c0 8.53 7.068 15.842 15.598 15.842 8.529 0 15.597-7.312 15.597-15.843C364.012 7.313 356.944 0 348.415 0c-8.53 0-15.598 7.312-15.598 15.355zM419.236 253c10.236 0 12.917-7.8 19.985-23.399l65.315-144.536c3.168-7.069 5.605-9.994 13.16-10.237l7.799-.244v-5.606H479.19v5.606l9.017.244c7.799.243 10.967 3.9 7.068 12.674l-33.877 76.046-33.388-79.946c-2.194-5.606.243-8.53 7.799-8.774l8.042-.244v-5.606h-59.222v5.606l7.067.244c7.556.243 9.018 2.924 11.942 9.505l45.087 107.001-12.916 28.274c-22.666 3.9-29.246 13.162-29.246 21.205 0 7.069 5.605 12.187 12.673 12.187zm147.927-58.741c16.816 0 29.733-7.068 36.313-28.517l1.706 27.298 38.507-7.068v-5.362h-18.523l.731-76.778c.244-29.248-11.941-38.754-35.582-38.754-13.648 0-27.783 5.118-41.187 12.187-11.455 5.606-22.178 13.162-22.178 21.449 0 6.581 5.849 11.212 16.572 11.212 3.169 0 6.093-.244 9.261-.975-4.874-22.668 6.093-36.805 25.59-36.805 16.817 0 24.859 10.481 24.859 24.13 0 10.481-.244 17.306-30.708 29.005-18.035 7.069-44.112 13.406-44.112 36.074 0 17.549 15.841 32.904 38.751 32.904zm9.748-9.993c-14.866 0-22.178-12.187-22.178-24.861 0-16.575 10.967-23.399 27.783-32.418 9.505-4.874 14.136-8.043 20.716-12.918l-.487 34.855c0 25.592-13.405 35.342-25.834 35.342zm143.858 7.068h68.727v-5.849l-10.967-.732c-7.555-.731-11.211-1.95-11.211-8.774V100.42h17.791l82.131 90.914h31.439L813.38 97.495c33.388-4.143 53.86-18.524 53.86-45.823 0-35.585-32.414-45.091-76.526-45.091h-69.945v5.85l10.967.73c7.067.732 10.967 1.95 10.967 8.775V175.98c0 6.824-3.9 8.043-10.967 8.774l-10.967.732v5.849zm46.549-98.47V14.137h21.447c31.195 0 50.936 10.48 50.936 39.242 0 29.004-19.741 39.485-50.936 39.485h-21.447zm195.685 101.395c29.976 0 51.907-14.624 59.467-47.529h-5.61c-9.01 28.03-28.268 32.905-43.865 32.905-27.052 0-46.793-24.374-46.793-59.96v-4.631h93.098c-7.07-36.317-33.876-49.722-56.541-49.722-32.414 0-61.416 25.836-61.416 64.834 0 40.217 26.565 64.103 61.66 64.103zm-.975-123.087c20.228 0 28.27 16.574 29.002 36.804h-64.097c3.656-24.618 17.547-36.805 35.095-36.805zm121.402 123.087c29.98 0 51.91-15.843 51.91-38.023 0-22.18-17.3-32.905-37.77-38.267l-14.87-3.9c-9.99-2.681-18.28-8.774-18.28-22.18 0-13.405 11.95-20.474 24.37-20.474 6.83 0 12.92.731 15.85 5.606l19.49 31.93h5.12l-5.85-38.267c-9.26-3.656-19.01-5.362-29-5.362-25.35 0-47.77 12.187-47.77 35.586 0 19.255 12.68 32.417 30.95 37.291l14.63 3.9c11.94 3.413 23.15 9.262 23.15 23.643 0 14.868-16.57 22.667-29 22.667-9.02 0-14.14-.243-17.79-6.824l-18.28-34.611h-4.88l5.12 43.142c10.48 2.924 20.96 4.143 32.9 4.143zm138.11 0c33.88 0 65.56-25.592 65.56-65.322 0-37.048-29.98-63.615-64.83-63.615-33.14 0-65.56 25.349-65.56 65.078 0 37.292 29.98 63.859 64.83 63.859zm.49-7.068c-20.47 0-38.75-16.331-38.75-57.522 0-41.68 18.28-57.766 38.75-57.766 19.98 0 38.26 16.086 38.26 57.766 0 41.191-18.28 57.522-38.26 57.522zm83.87 4.143h63.37v-5.606l-13.17-.731c-8.53-.244-9.5-1.219-9.5-7.8v-60.203c0-17.549 9.02-29.98 37.53-28.03l9.51.975V66.784h-2.2c-21.2 0-38.75 10.48-44.84 36.805V65.078l-40.7 15.6v1.462l17.79 9.993v85.064c0 6.581-1.22 7.8-9.26 8.044l-8.53.487v5.606zm142.82-109.925h39.48l7.8-12.431h-47.28V42.654h-1.46l-47.77 37.292v1.463h26.32v87.258c0 19.255 8.29 24.617 25.59 24.617 14.87 0 31.44-7.068 38.75-12.918l-2.19-4.387c-7.07 3.656-14.63 5.362-22.67 5.362-10.72 0-16.57-4.387-16.57-19.012v-80.92z"/></symbol><symbol viewBox="0 0 12 8" id="arrow-down" xmlns="http://www.w3.org/2000/svg"><path d="M5.362 7.728l-5.1-5.281A.915.915 0 010 1.787c0-.26.087-.48.263-.66l.862-.855A.853.853 0 011.762 0c.25 0 .463.09.638.272L6 4 9.6.272A.853.853 0 0110.238 0c.25 0 .462.09.637.272l.863.854a.915.915 0 01.262.66.915.915 0 01-.262.66l-5.1 5.282A.853.853 0 016 8a.853.853 0 01-.638-.272z"/></symbol><symbol viewBox="0 0 8 12" id="arrow-next" xmlns="http://www.w3.org/2000/svg"><path d="M7.728 6.638l-5.281 5.1a.915.915 0 01-.66.262.915.915 0 01-.66-.262l-.855-.863A.853.853 0 010 10.238c0-.25.09-.463.272-.638L4 6 .272 2.4A.853.853 0 010 1.763c0-.25.09-.463.272-.638l.854-.863A.915.915 0 011.786 0c.26 0 .48.088.66.263l5.282 5.1A.853.853 0 018 6c0 .25-.09.463-.272.638z"/></symbol><symbol viewBox="0 0 8 12" id="arrow-prev" xmlns="http://www.w3.org/2000/svg"><path d="M.272 6.638l5.281 5.1a.915.915 0 00.66.262.915.915 0 00.66-.262l.855-.863A.853.853 0 008 10.238c0-.25-.09-.463-.272-.638L4 6l3.728-3.6A.853.853 0 008 1.763c0-.25-.09-.463-.272-.638L6.874.262A.915.915 0 006.214 0a.915.915 0 00-.66.263l-5.282 5.1A.853.853 0 000 6c0 .25.09.463.272.638z"/></symbol><symbol viewBox="0 0 8 12" id="arrow-right" xmlns="http://www.w3.org/2000/svg"><path d="M7.728 6.638l-5.281 5.1a.915.915 0 01-.66.262.915.915 0 01-.66-.262l-.855-.863A.853.853 0 010 10.238c0-.25.09-.463.272-.638L4 6 .272 2.4A.853.853 0 010 1.763c0-.25.09-.463.272-.638l.854-.863A.915.915 0 011.786 0c.26 0 .48.088.66.263l5.282 5.1A.853.853 0 018 6c0 .25-.09.463-.272.638z" fill-opacity=".24"/></symbol><symbol viewBox="0 0 23 22" id="calendar" xmlns="http://www.w3.org/2000/svg"><path fill-rule="evenodd" clip-rule="evenodd" d="M4 0a4 4 0 00-4 4v14a4 4 0 004 4h15a4 4 0 004-4V4a4 4 0 00-4-4H4zm17 5H2v15h19V5z"/><path d="M8 8a1 1 0 011-1h1a1 1 0 011 1v1a1 1 0 01-1 1H9a1 1 0 01-1-1V8zm4 0a1 1 0 011-1h1a1 1 0 011 1v1a1 1 0 01-1 1h-1a1 1 0 01-1-1V8zm4 0a1 1 0 011-1h1a1 1 0 011 1v1a1 1 0 01-1 1h-1a1 1 0 01-1-1V8zM4 12a1 1 0 011-1h1a1 1 0 011 1v1a1 1 0 01-1 1H5a1 1 0 01-1-1v-1zm4 0a1 1 0 011-1h1a1 1 0 011 1v1a1 1 0 01-1 1H9a1 1 0 01-1-1v-1zm4 0a1 1 0 011-1h1a1 1 0 011 1v1a1 1 0 01-1 1h-1a1 1 0 01-1-1v-1zm4 0a1 1 0 011-1h1a1 1 0 011 1v1a1 1 0 01-1 1h-1a1 1 0 01-1-1v-1zM4 16a1 1 0 011-1h1a1 1 0 011 1v1a1 1 0 01-1 1H5a1 1 0 01-1-1v-1zm4 0a1 1 0 011-1h1a1 1 0 011 1v1a1 1 0 01-1 1H9a1 1 0 01-1-1v-1zm4 0a1 1 0 011-1h1a1 1 0 011 1v1a1 1 0 01-1 1h-1a1 1 0 01-1-1v-1z"/></symbol><symbol viewBox="0 0 59 40" id="cloudly" xmlns="http://www.w3.org/2000/svg"><path d="M19.108 6.656c.868 0 1.613-.74 1.613-1.602V1.602C20.72.74 19.976 0 19.108 0c-.869 0-1.613.74-1.613 1.602v3.452c0 .924.744 1.602 1.613 1.602zM8.065 10.293c.31.308.744.493 1.116.493.435 0 .807-.185 1.117-.493.62-.617.62-1.603 0-2.219L7.878 5.67a1.58 1.58 0 00-2.233 0 1.555 1.555 0 000 2.22l2.42 2.403zm-1.427 8.752c0-.863-.745-1.603-1.613-1.603H1.613c-.869 0-1.613.74-1.613 1.603s.744 1.602 1.613 1.602h3.474c.868 0 1.55-.74 1.55-1.602zm1.427 8.752L5.645 30.2a1.555 1.555 0 000 2.22c.31.307.745.492 1.117.492s.806-.185 1.117-.493l2.42-2.404c.62-.616.62-1.602 0-2.218a1.58 1.58 0 00-2.234 0zm20.969-17.011c.435 0 .807-.185 1.117-.493l2.42-2.404c.62-.616.62-1.602 0-2.219a1.58 1.58 0 00-2.234 0l-2.42 2.404a1.555 1.555 0 000 2.219c.31.308.745.493 1.117.493zm24.382 12.881c-.682-4.253-4.405-7.58-8.872-7.58a9.1 9.1 0 00-3.412.677c-2.171-1.849-4.901-2.896-7.755-2.896-1.923 0-3.722.43-5.335 1.232-1.49-3.39-4.902-5.732-8.872-5.732-5.398 0-9.74 4.315-9.74 9.677 0 4.006 2.481 7.396 5.956 8.875a8.705 8.705 0 00-.373 2.588c0 5.24 4.281 9.492 9.554 9.492H50.5c4.715 0 8.5-3.76 8.5-8.444-.063-3.513-2.358-6.718-5.584-7.889zm-40.822-4.622c0-3.575 2.916-6.472 6.514-6.472 2.854 0 5.335 1.85 6.204 4.438-1.303 1.17-2.296 2.65-2.978 4.314-2.296.555-4.28 1.91-5.584 3.76-2.481-.986-4.156-3.329-4.156-6.04zm37.844 17.75H24.505c-3.474 0-6.328-2.835-6.328-6.287 0-3.143 2.358-5.855 5.522-6.224a1.596 1.596 0 001.365-1.11c1.116-3.636 4.467-6.102 8.313-6.102 2.42 0 4.653.987 6.328 2.712.497.555 1.303.678 1.985.308.869-.493 1.924-.8 2.916-.8 3.102 0 5.708 2.526 5.77 5.608 0 .74.558 1.356 1.24 1.54 2.42.494 4.157 2.712 4.157 5.116-.062 2.897-2.42 5.24-5.335 5.24z"/></symbol><symbol viewBox="0 0 62 40" id="decor-lotus" xmlns="http://www.w3.org/2000/svg"><path d="M30.981.005A.711.711 0 0031.016 0a28.825 28.825 0 012.593 5.773c.786 2.465 1.188 5.055 1.119 7.64-.053 2.259-.466 4.504-1.171 6.652a28.066 28.066 0 01-2.329 5.173c.137.262.483.222.72.134.488-.193.867-.572 1.212-.951.686-.806 1.182-1.75 1.596-2.714.372-.875.665-1.781.917-2.697.598-2.014 1.734-3.832 3.041-5.474 1.197-1.492 2.564-2.848 4.035-4.078 1.658-1.379 3.457-2.602 5.386-3.587 1.133-.565 2.315-1.05 3.552-1.348-.072 3.77-.565 7.593-2.035 11.101a19.142 19.142 0 01-2.48 4.297c-1.713 2.242-3.964 4.054-6.454 5.405-.546.283-1.093.645-1.4 1.188-.195.327-.197.753.008 1.077.317.52.888.824 1.447 1.034.952.327 1.982.28 2.975.242 2.993-.138 6.024.246 8.844 1.26 2.106.747 4.076 1.838 5.867 3.155A30.165 30.165 0 0162 36.37c-1.852 1.086-3.803 2.02-5.857 2.675-2.157.69-4.438 1.065-6.71.926a14.82 14.82 0 01-3.593-.67c-1.465-.433-2.895-.978-4.373-1.368-1.135-.294-2.354-.478-3.502-.15-.902.332-1.79.697-2.684 1.05-.743.313-1.514.565-2.313.696-2.039.347-4.193.172-6.102-.636-.808-.32-1.61-.654-2.425-.954-.76-.342-1.622-.378-2.44-.29-1.056.123-2.074.44-3.08.763-1.175.382-2.344.787-3.539 1.112-2.393.634-4.934.6-7.348.095-2.851-.592-5.54-1.787-8.034-3.249 1.457-1.47 3.044-2.827 4.795-3.951a21.905 21.905 0 015.741-2.66c2.44-.727 5.01-.997 7.553-.9.99.04 2.009.098 2.972-.179.588-.192 1.181-.486 1.551-.992.235-.315.29-.754.105-1.104-.293-.583-.869-.963-1.436-1.26-2.69-1.456-5.1-3.46-6.856-5.948-1.24-1.735-2.157-3.68-2.79-5.705-.924-2.958-1.263-6.063-1.322-9.148 1.945.475 3.753 1.376 5.447 2.415a30.575 30.575 0 017.075 6.05c1.59 1.89 2.98 4.02 3.605 6.42.29 1.007.642 1.999 1.097 2.945.478.973 1.048 1.937 1.895 2.646.309.238.677.488 1.091.428.119-.005.181-.11.249-.19-1.063-1.85-1.935-3.813-2.542-5.854a22.811 22.811 0 01-.964-6.75c.02-2.324.418-4.642 1.124-6.86A28.718 28.718 0 0130.981.005z"/></symbol><symbol viewBox="0 0 360 306" id="decor-slide" xmlns="http://www.w3.org/2000/svg"><path d="M360 306H0V0c181.528 0 332.075 132.517 360 306z" fill-opacity=".48"/></symbol><symbol viewBox="0 0 12 18" id="facebook" xmlns="http://www.w3.org/2000/svg"><path d="M9.669 10H7v8H3v-8H0V7h3V4.54C3 3.601 3 2.5 4 1.5S6.376 0 8.188 0C10 0 11.5.5 11.5.5l-1.5 3s-2-.5-2.5 0-.5.766-.5 1.258V7h3.5l-.831 3z"/><path d="M9.669 10H7v8H3v-8H0V7h3V4.54C3 3.601 3 2.5 4 1.5S6.376 0 8.188 0C10 0 11.5.5 11.5.5l-1.5 3s-2-.5-2.5 0-.5.766-.5 1.258V7h3.5l-.831 3z"/></symbol><symbol viewBox="0 0 18 18" id="instagram" xmlns="http://www.w3.org/2000/svg"><path d="M17.96 5.304c.027.723.04 1.955.04 3.696s-.013 2.973-.04 3.696c-.08 1.634-.576 2.907-1.487 3.817-.884.884-2.143 1.353-3.777 1.407-.723.053-1.955.08-3.696.08s-2.973-.027-3.696-.08c-1.634-.08-2.893-.563-3.777-1.447a3.876 3.876 0 01-.844-1.125 6.597 6.597 0 01-.482-1.245c-.08-.402-.12-.87-.12-1.407C.026 11.973 0 10.741 0 9s.027-2.987.08-3.737c.08-1.607.563-2.852 1.447-3.736C2.41.617 3.67.12 5.304.04 6.027.013 7.259 0 9 0s2.973.013 3.696.04c1.634.08 2.893.576 3.777 1.487.91.884 1.407 2.143 1.487 3.777zm-2.322 9c.08-.215.148-.483.201-.804.054-.348.094-.75.12-1.205.028-.482.041-.87.041-1.165V6.871c0-.295-.013-.67-.04-1.125a11.367 11.367 0 00-.12-1.206 4.36 4.36 0 00-.202-.844c-.321-.83-.504-1.013-1.334-1.334a4.355 4.355 0 00-.844-.201 11.368 11.368 0 00-1.206-.12A17.986 17.986 0 0011.13 2H6.87c-.295 0-.684.013-1.166.04a13.06 13.06 0 00-1.205.12 4.36 4.36 0 00-.804.202c-.83.321-1.013.504-1.334 1.334-.08.215-.148.496-.201.844a11.08 11.08 0 00-.12 1.206C2.012 6.2 2 6.576 2 6.87v4.821c.027.402.054.75.08 1.045a10.65 10.65 0 00.282 1.567c.348.83.53 1.013 1.334 1.334.215.08.483.148.804.201.348.054.75.094 1.205.12a20.5 20.5 0 001.125.041h4.3c.295 0 .67-.013 1.126-.04.482-.027.883-.067 1.205-.12a4.33 4.33 0 00.844-.202c.83-.348 1.013-.53 1.334-1.334z"/><path fill-rule="evenodd" clip-rule="evenodd" d="M9 12a3 3 0 100-6 3 3 0 000 6zm0 2A5 5 0 109 4a5 5 0 000 10z"/><path d="M15 4a1 1 0 11-2 0 1 1 0 012 0z"/></symbol><symbol viewBox="0 0 15 8" id="key" xmlns="http://www.w3.org/2000/svg"><path fill-rule="evenodd" clip-rule="evenodd" d="M7.874 5A4.002 4.002 0 010 4a4 4 0 017.874-1H11V1h3v2h1v2H7.874zM4 6a2 2 0 100-4 2 2 0 000 4z"/></symbol><symbol viewBox="0 0 10.134 15.626" id="location" xmlns="http://www.w3.org/2000/svg"><path d="M7.873.853a5.043 5.043 0 00-5.612 0A5.03 5.03 0 00.626 7.484l4.441 8.142 4.441-8.142A5.03 5.03 0 007.873.853zm.758 6.153l-3.563 6.533-3.564-6.533a4.036 4.036 0 011.312-5.321C3.5 1.229 4.283 1 5.067 1s1.567.228 2.251.684a4.038 4.038 0 011.313 5.322z"/><path d="M5.067 2.083c-1.378 0-2.5 1.122-2.5 2.5s1.122 2.5 2.5 2.5 2.5-1.122 2.5-2.5-1.121-2.5-2.5-2.5zm0 4c-.827 0-1.5-.673-1.5-1.5s.673-1.5 1.5-1.5 1.5.673 1.5 1.5-.673 1.5-1.5 1.5z"/></symbol><symbol viewBox="0 0 66 56" id="logo" xmlns="http://www.w3.org/2000/svg"><path d="M32.955 0h.107c1.208 1.724 2.4 3.46 3.468 5.274 2.5 4.2 4.456 8.769 5.365 13.583.688 3.556.784 7.211.429 10.81 5.464-5.939 13.195-9.757 21.252-10.451-.267 2.648-.759 5.282-1.655 7.792-1.825 5.236-4.949 9.983-8.873 13.895 1.813-.14 3.64-.137 5.448.064 2.59.252 5.1.996 7.504 1.966-.775 1.124-1.537 2.263-2.44 3.293-3.314 3.837-7.776 6.602-12.572 8.2-5.46 1.81-11.496 2.168-17.039.497-.417-.099-.846-.392-1.279-.2-4.358 1.458-9.092 1.602-13.589.759-5.511-1.042-10.787-3.558-14.88-7.41C2.568 46.565 1.217 44.787 0 42.936c1.23-.473 2.46-.949 3.738-1.277a26.83 26.83 0 019.242-.736c-3.908-3.853-6.999-8.559-8.842-13.728-.935-2.569-1.448-5.265-1.72-7.976 8.058.69 15.788 4.513 21.257 10.451-.502-4.816-.11-9.735 1.295-14.376C26.625 9.743 29.56 4.663 32.955 0zm-6.27 19.127c-.814 4.055-.812 8.248-.193 12.331.5 3.1 1.231 6.155 1.852 9.23-1.394-2.049-2.716-4.148-4.103-6.203-4.354-6.316-11.286-10.752-18.806-12.254 1.326 6.753 5.083 12.895 10.083 17.58 2.193 2.051 4.687 3.745 6.991 5.665-2.304-.52-4.587-1.132-6.898-1.617-3.796-.73-7.771-.685-11.506.354 3.038 3.718 7.278 6.353 11.818 7.853 5.344 1.754 11.302 1.955 16.62-.006.55-.257 1.1.094 1.627.246 5.162 1.71 10.856 1.428 15.984-.267 4.507-1.505 8.714-4.13 11.733-7.826-2.974-.83-6.109-1.023-9.175-.7-3.152.316-6.168 1.348-9.268 1.94 1.576-1.178 3.106-2.413 4.664-3.617 6.197-4.872 10.918-11.828 12.447-19.608C52.76 23.79 45.6 28.502 41.282 35.185c-1.21 1.786-2.322 3.646-3.591 5.386.558-2.937 1.273-5.845 1.76-8.795.655-4.115.692-8.348-.103-12.445C38.336 13.989 35.958 8.999 33 4.468c-2.931 4.467-5.28 9.393-6.314 14.659z"/><path d="M30.112 17.527c.67-2.343 1.56-4.657 2.902-6.705 2.912 4.782 4.078 10.451 4.09 15.998-.031 5.499-1.194 11.12-4.088 15.86-1.5-2.272-2.438-4.877-3.117-7.5-1.412-5.774-1.354-11.915.213-17.653z"/></symbol><symbol viewBox="0 0 32 26" id="open-menu" xmlns="http://www.w3.org/2000/svg"><path d="M0 0h32v2H0V0zm0 12h32v2H0v-2zm0 12h24v2H0v-2z"/></symbol><symbol viewBox="0 0 10 5" id="select-arrow" xmlns="http://www.w3.org/2000/svg"><path d="M0 0h10L5 5 0 0z"/></symbol><symbol viewBox="0 0 73 8" id="stars" xmlns="http://www.w3.org/2000/svg"><path d="M4.5 0l1.062 3.056H9L6.219 4.944 7.28 8 4.5 6.111 1.719 8 2.78 4.944 0 3.056h3.438L4.5 0zm16 0l1.062 3.056H25l-2.781 1.888L23.28 8 20.5 6.111 17.719 8l1.062-3.056L16 3.056h3.438L20.5 0zm16 0l1.062 3.056H41l-2.781 1.888L39.28 8 36.5 6.111 33.719 8l1.062-3.056L32 3.056h3.438L36.5 0zm16 0l1.062 3.056H57l-2.781 1.888L55.28 8 52.5 6.111 49.719 8l1.062-3.056L48 3.056h3.438L52.5 0zm16 0l1.062 3.056H73l-2.781 1.888L71.28 8 68.5 6.111 65.719 8l1.062-3.056L64 3.056h3.438L68.5 0z"/></symbol><symbol viewBox="0 0 20 22" id="subtract" xmlns="http://www.w3.org/2000/svg"><path fill-rule="evenodd" clip-rule="evenodd" d="M14 4a4 4 0 11-8 0 4 4 0 018 0zm-4 2a2 2 0 100-4 2 2 0 000 4zM0 18c2.192 2.394 6.107 4 10 4s7.808-1.606 10-4c-1.271-4.671-5.519-8-10-8s-8.729 3.329-10 8zm2-.667C3.754 18.93 6.886 20 10 20s6.246-1.07 8-2.667C16.983 14.22 13.585 12 10 12s-6.983 2.219-8 5.333z"/></symbol><symbol viewBox="0 0 18 15" id="twitter" xmlns="http://www.w3.org/2000/svg"><path d="M16.137 3.813c.023.09.035.24.035.445 0 1.21-.235 2.42-.703 3.63a11.437 11.437 0 01-2.004 3.29c-.844.981-1.945 1.78-3.305 2.397-1.36.617-2.86.925-4.5.925-2.062 0-3.95-.537-5.66-1.61.258.023.55.034.879.034 1.71 0 3.246-.513 4.605-1.541-.82 0-1.546-.229-2.18-.685A3.716 3.716 0 012.04 8.916c.234.023.457.035.668.035.328 0 .656-.035.984-.103a3.63 3.63 0 01-1.511-.685A3.834 3.834 0 011.125 6.93a3.477 3.477 0 01-.387-1.61v-.07a3.542 3.542 0 001.653.48C1.289 5 .738 3.995.738 2.716A3.4 3.4 0 011.266.901a10.183 10.183 0 003.34 2.672 10.56 10.56 0 004.253 1.096 4.867 4.867 0 01-.07-.822c0-.982.352-1.827 1.055-2.535A3.597 3.597 0 0112.445.25c1.078 0 1.98.377 2.707 1.13a7.635 7.635 0 002.356-.856c-.281.845-.82 1.507-1.617 1.987A8.09 8.09 0 0018 1.928a8.001 8.001 0 01-1.863 1.885z"/></symbol><symbol viewBox="0 0 182 32" id="waves" xmlns="http://www.w3.org/2000/svg"><path d="M91.003 0C93 0 102.871.387 110.494 4.802c4.586 2.656 8.959 3.905 13.605 3.868 4.657-.038 9.633-1.37 15.423-3.95C148.95.519 158.099.278 165.613 1.738 173.11 3.194 179.026 6.354 182 9.02l-.893 1.127c-2.753-2.468-8.433-5.539-15.743-6.96-7.294-1.416-16.164-1.182-25.307 2.894-5.886 2.623-11.048 4.023-15.947 4.063-4.911.04-9.514-1.288-14.279-4.047C102.531 1.868 92.566 1.493 91 1.49c-1.566.003-11.53.378-18.831 4.607-4.765 2.759-9.368 4.087-14.279 4.047-4.9-.04-10.061-1.44-15.947-4.063C32.8 2.005 23.93 1.77 16.636 3.188c-7.31 1.42-12.99 4.49-15.743 6.959L0 9.02c2.974-2.666 8.89-5.826 16.387-7.283C23.901.277 33.05.518 42.478 4.721c5.79 2.58 10.766 3.91 15.423 3.949 4.646.037 9.019-1.212 13.605-3.868C79.13.387 89 0 90.996 0h.007zm0 10.927c1.997 0 11.868.386 19.491 4.802 4.586 2.655 8.959 3.905 13.605 3.867 4.657-.038 9.633-1.369 15.423-3.949 9.428-4.202 18.577-4.443 26.091-2.983 7.497 1.457 13.413 4.616 16.387 7.282l-.893 1.127c-2.753-2.468-8.433-5.538-15.743-6.959-7.294-1.417-16.164-1.182-25.307 2.893-5.886 2.623-11.048 4.024-15.947 4.063-4.911.04-9.514-1.288-14.279-4.046-7.3-4.23-17.265-4.604-18.831-4.608-1.566.004-11.53.379-18.831 4.608-4.765 2.758-9.368 4.086-14.279 4.046-4.9-.04-10.061-1.44-15.947-4.063-9.143-4.075-18.013-4.31-25.307-2.893-7.31 1.42-12.99 4.491-15.743 6.96L0 19.945c2.974-2.666 8.89-5.825 16.387-7.282 7.514-1.46 16.663-1.22 26.091 2.983 5.79 2.58 10.766 3.911 15.423 3.949 4.646.038 9.019-1.212 13.605-3.867 7.623-4.416 17.494-4.802 19.49-4.802h.007zm0 10.926c1.997 0 11.868.387 19.491 4.802 4.586 2.655 8.959 3.905 13.605 3.867 4.657-.037 9.633-1.368 15.423-3.948 9.428-4.203 18.577-4.444 26.091-2.984 7.497 1.457 13.413 4.617 16.387 7.283L181.107 32c-2.753-2.468-8.433-5.539-15.743-6.96-7.294-1.416-16.164-1.182-25.307 2.893-5.886 2.624-11.048 4.024-15.947 4.064-4.911.04-9.514-1.288-14.279-4.047-7.3-4.229-17.265-4.604-18.831-4.607-1.566.003-11.53.378-18.831 4.607-4.765 2.759-9.368 4.086-14.279 4.047-4.9-.04-10.061-1.44-15.947-4.064-9.143-4.075-18.013-4.31-25.307-2.892C9.326 26.46 3.646 29.53.893 32L0 30.873c2.974-2.666 8.89-5.826 16.387-7.283 7.514-1.46 16.663-1.219 26.091 2.984 5.79 2.58 10.766 3.91 15.423 3.948 4.646.038 9.019-1.211 13.605-3.867C79.13 22.24 89 21.853 90.996 21.853h.007z"/></symbol><symbol viewBox="0 0 146 8" id="waves-1" xmlns="http://www.w3.org/2000/svg"><path d="M73.002 0c1.602 0 9.521.305 15.636 3.786 3.679 2.094 7.187 3.079 10.914 3.05 3.736-.03 7.728-1.08 12.372-3.114 7.564-3.313 14.903-3.503 20.93-2.352 6.014 1.148 10.761 3.64 13.146 5.74l-.717.889c-2.208-1.946-6.764-4.367-12.629-5.487-5.85-1.117-12.966-.932-20.3 2.28-4.722 2.07-8.863 3.173-12.793 3.204-3.94.032-7.632-1.015-11.455-3.19C82.25 1.473 74.256 1.177 73 1.175c-1.256.002-9.25.298-15.106 3.632-3.823 2.175-7.515 3.222-11.454 3.19-3.931-.03-8.072-1.135-12.794-3.203-7.334-3.213-14.45-3.398-20.3-2.28C7.48 3.633 2.925 6.053.716 8L0 7.111C2.385 5.01 7.132 2.518 13.146 1.37 19.173.219 26.512.409 34.076 3.722c4.644 2.034 8.636 3.084 12.372 3.113 3.727.03 7.235-.955 10.914-3.049C63.477.305 71.396 0 72.998 0h.004z"/></symbol></svg>