<svg xmlns="http://www.w3.org/2000/svg"><symbol fill="none" viewBox="0 0 850 313" id="bg-weather" xmlns="http://www.w3.org/2000/svg"><path opacity=".64" d="M524.085 312.036c-105.284-5.992-209.442-33.43-302.352-83.505-48.946-25.802-92.863-59.913-134.024-96.658l1.223-.89c26.076-18.996 52.2-38.028 80.323-53.92C236.051 38.984 309.697 13.068 385.424.022 566.32 12.466 728.943 91.36 849.063 212.47a609.007 609.007 0 01-49.68.468c-2.997.086-6.115-.191-9.252-.471h-.002c-8.031-.716-16.184-1.442-22.754 3.903-73.29 48.578-156.942 79.87-243.29 95.666z" fill="#000"/><path d="M435.185 312.2l-.274-.016c-125.582-7.626-250.64-45.463-355.034-116.519-25.536-17.098-48.901-37.086-72.2-57.018l-.005-.004-.171-.146c-2.24-1.917-4.48-3.833-6.722-5.746L0 132.086l.818-.616c51.293-38.595 106.513-72.419 166.813-95.05C209.329 20.115 252.69 8.358 296.63.085l.453-.085c1.294.088 2.587.18 3.879.275l.024.014-2.663.496c-44.405 8.278-88.22 20.101-130.328 36.566l-.013.005C107.869 59.917 52.792 93.632 1.598 132.135c2.242 1.914 4.482 3.831 6.723 5.747l.002.002c23.307 19.938 46.626 39.887 72.11 56.95l.007.004c104.225 70.941 229.103 108.731 354.529 116.348 1.46.086 2.919.168 4.379.246-1.387.26-2.774.516-4.163.768z" fill="#fff" fill-opacity=".72"/></symbol><symbol fill="none" viewBox="0 0 634 856" id="decor-left" xmlns="http://www.w3.org/2000/svg"><path d="M-306.396-45.691l-.654 2.443c5.825-2.773 11.711-5.44 17.682-7.858l-3.69-.988a235.987 235.987 0 01-13.338 6.403zm-2.55 9.519l-.388 1.446c10.287-3.88 20.57-7.972 30.01-13.688l-2.651-.71c-8.518 5.301-18.175 8.236-26.971 12.952zm-2.231 8.326l-.369 1.376c11.557-3.179 22.638-7.779 33.872-11.886 3.096-1.172 6.48-1.906 9.759-1.012.886 4.436-.324 8.897-1.524 13.15-4.825 16.434-13.013 31.56-19.237 47.44-3.057 7.592-5.104 15.907-3.877 24.121 1.649 7.65 8.519 13.6 16.072 15.097 7.7 1.34 15.376-.71 23.048-1.228 7.463-.695 15.178 3.058 19.353 9.248 2.191 4.786 1.48 10.299 2.758 15.351 1.009-5.057 1.876-10.648-.7-15.401-3.485-6.351-10.644-10.105-17.646-11.019-8.487-.423-16.851 2.678-25.349 1.289-7.541-.922-14.642-6.632-15.817-14.366-1.25-9.138 2.042-18.113 5.474-26.433 6.164-14.42 13.201-28.56 17.538-43.68 1.31-4.721 2.686-9.634 1.921-14.58a14.254 14.254 0 00-11.696-.003c-11.099 4.444-22.559 7.935-33.58 12.536z" fill="#fff"/><path d="M-315.485-11.77l-.384 1.432c4.333 1.673 9.305 2.478 12.818 5.752 2.143 1.823.719 4.722.42 7.02-3.078 14.57-13.878 26.092-16.983 40.655-1.589 8.061 1.197 16.181 5.372 22.988 5.945 10.246 12.186 21.745 23.656 26.579 10.819 4.57 24.035 7.373 30.75 17.946 6.994 14.243-.168 31.376 7.512 45.472 4.057 8.371 13.097 12.734 17.462 20.796 5.092 13.207.391 27.553 2.534 41.159.724 5.431 4.473 9.957 9.135 12.59 7.041 3.858 15.166 4.846 22.786 7.099 4.094.826 8.322 2.892 12.53 1.552-8.254-3.928-17.67-3.802-26.218-6.86-6.802-1.943-14.279-5.797-15.993-13.315-3.195-14.504 2.902-30.191-3.61-44.156-4.683-7.379-13.025-11.766-16.98-19.733-6.999-13.553-1.006-29.689-6.709-43.587-3.115-6.388-9.293-10.601-15.396-13.862-8.06-4.372-17.906-5.28-24.861-11.642-5.837-5.432-9.868-12.44-14.038-19.156-4.04-6.636-7.493-14.287-6.318-22.264 2.889-17.179 17.844-30.402 17.776-48.328-2.746-5.687-9.916-6.313-15.261-8.137z" fill="#fff"/><path d="M-318.999 1.344l-.778 2.906c2.156 8.9-1.908 17.276-6.588 24.585l-2.227 8.312c6.141-10.574 14.772-23.145 9.593-35.803zm-13.374 49.913l-1.106 4.128c3.285 9.623 9.747 17.66 14.194 26.707 3.873 7.599 6.739 16.207 13.746 21.591 10.019 8.508 24.775 9.663 33.44 19.915 5.792 9.528 4.197 21.259 6.774 31.731 3.049 12.916 12.81 22.725 17.446 34.937 3.612 14.632-4.304 30.599 3.014 44.584 6.732 11.856 20.918 16.876 33.618 19.195-10.363-5.877-24.193-7.4-30.972-18.351-9.616-15.398 2.06-34.285-5.469-50.237-4.203-8.666-10.611-16.116-14.129-25.155-4.896-12.026-1.819-26.205-8.749-37.542-9.72-12.206-28.017-12.323-37.819-24.505-5.901-7.66-8.422-17.275-13.738-25.32-4.431-6.696-8.723-13.684-10.25-21.678zm-5.59 20.864l-1.155 4.31c4.795 8.478 9.614 16.978 12.573 26.303 3.809 11.991 13.133 22.42 25.521 25.679-.114-.753-.346-2.245-.464-2.983-4.719-4.215-10.97-6.642-14.846-11.819-5.317-6.526-7.023-14.974-10.485-22.478-2.993-6.73-7.177-12.832-11.144-19.012zm-6.366 23.756l-1.042 3.89c4.214 10.925 5.131 23.33 12.562 32.8 7.882 10.027 19.284 16.799 26.405 27.481 4.964 7.906 7.064 17.182 11.558 25.323 4.363 8.182 10.817 15.855 11.213 25.547.954 17.426-1.191 36.203 7.742 52.02-.994-7.008-3.601-13.666-4.517-20.683-1.541-11.082-.571-22.334-1.594-33.443-.747-8.883-6.754-15.865-10.765-23.456-4.429-7.823-6.636-16.645-10.962-24.516-8.062-13.793-23.816-21.099-31.361-35.25-4.32-9.464-5.738-19.941-9.239-29.713zm-18.37 68.559l-.722 2.696c4.314 8.138 5.302 17.357 5.127 26.429-.147 9.246 1.914 18.947 8.138 26.078 5.973 6.942 14.995 10.473 20.688 17.732 4.436 5.553 5.83 12.698 7.869 19.339 3.733 13.34 10.721 25.415 16.757 37.792 5.361 10.014 9.621 20.546 13.767 31.107 4.745 12.257 12.719 23.347 14.855 36.53 2.411 15.017.365 30.285-2.097 45.14-2.089 11.78 1.737 23.369 2.807 35.032 1.275 8.935.886 18.296 4.502 26.744.149-8.583-1.761-16.995-2.504-25.501-1.049-12.079-4.942-24.092-2.86-36.296 2.427-15.902 4.848-32.288 1.346-48.23-1.868-8.852-6.355-16.796-10.198-24.899-5.557-11.526-9.481-23.758-15.293-35.173-5.792-12.446-13.192-24.165-17.499-37.268-2.604-7.229-3.832-14.992-7.446-21.814-6.427-11.534-21.288-15.049-27.125-27.042-5.66-10.47-2.746-22.691-4.866-33.913-.79-5.133-3.049-9.831-5.246-14.483zm-45.615 170.239l-.734 2.738c4.738-4.329 9.361-8.899 14.834-12.323 6.871-4.208 15.124-4.54 22.857-5.794 6.844-.905 13.551-2.764 20.428-3.344 9.191-.577 19.353 3.018 24.059 11.382 8.71 13.169 7.477 29.497 9.12 44.519 1.204 11.218.871 22.505 1.346 33.753.408 8.913 3.409 18.701-1.642 26.888-6.504 9.965-19.386 13.375-25.583 23.708-4.944 6.501-2.5 15.056.081 21.977 2.952 7.217 5.011 14.796 8.521 21.786-.401-12.868-10.127-23.48-9.72-36.448 2.932-11.389 14.182-16.846 22.644-23.623 7.522-5.855 9.958-16.067 8.439-25.157-1.915-11.874-.66-23.908-1.718-35.839-.751-9.486-1.411-18.978-2.225-28.451-1.165-12.095-5.251-25.349-15.869-32.407-8.249-5.747-18.902-4.087-28.18-2.344-8.212 1.862-16.643 2.463-24.864 4.248-8.886 1.907-15.673 8.44-21.794 14.731zm-29.439 109.865l-.391 1.461c5.25 3.077 11.634 5.118 15.066 10.492 4.57 6.958 6.189 15.338 10.323 22.525 4.262 7.492 10.207 13.81 15.228 20.769 8.235 11.521 19.899 21.072 33.595 25.118-5.834-4.768-13.169-7.245-18.92-12.157-8.399-6.419-13.961-15.569-20.612-23.626-4.377-5.326-8.114-11.188-10.732-17.578-2.754-6.276-4.627-13.143-9.102-18.496-3.727-4.384-9.265-6.44-14.455-8.508zm-5.782 21.58l-.783 2.921c3.817 13.813 1.491 29.172 9.439 41.76 3.135 5.866 4.687 12.361 7.026 18.556 2.035 5.481 5.576 10.222 9.215 14.764 8.462 10.393 16.417 21.388 22.043 33.61 3.702 7.674.972 16.964-4.734 22.884-7.083 7.583-16.194 13.358-26.056 16.554-12.835 4.131-27.666-1.062-35.711-11.72-6.478-8.989-6.873-20.532-9.482-30.937l-1.122 4.184c1.77 7.817 3.081 15.828 6.288 23.219 5.536 11.716 18.709 18.33 31.307 18.561 10.184-.522 19.822-5.012 27.808-11.194 6.359-4.767 12.73-10.644 14.398-18.775 2.451-7.409-1.015-14.899-4.695-21.197-6.283-10.276-13.356-20.071-21.033-29.352-4.99-5.897-7.507-13.283-9.719-20.572-2.543-8.687-8.352-16.187-9.514-25.317-1.374-9.352-1.206-19.013-4.675-27.949zm-66.834 249.427l-1.046 3.903c7.183-6.999 13.589-14.914 21.906-20.646 6.513-4.5 12.726-9.562 19.932-12.943 12.211-5.17 25.858-5.095 38.29-9.634 18.712-5.866 32.228-20.844 48.934-30.333 10.344-6.227 19.929-13.606 29.14-21.386 6.95-5.902 14.741-10.963 20.427-18.212 4.941-6.321 8.83-13.54 10.816-21.345-4.005 4.735-5.9 10.743-9.212 15.921-3.574 5.874-8.675 10.602-13.993 14.85-12.484 9.837-24.377 20.555-38.186 28.548-14.797 8.705-27.172 21.221-43.072 28.096-11.751 5.474-24.899 6.059-37.239 9.525-10.072 2.688-18.21 9.491-26.675 15.214-7.611 5.063-13.398 12.241-20.022 18.442z" fill="#fff"/><path d="M-531.275 793.569l-1.606 5.995c6.676-4.547 13.321-9.764 21.397-11.452 8.393-1.754 16.995-.638 25.493-1.04 9.961-.31 19.703-2.606 29.455-4.492 18.831-3.727 38.117-2.367 57.158-3.736 13.668-1.183 26.878-6.432 37.641-14.954 10.219-8.172 22.235-13.515 33.123-20.65 14.049-9.057 23.052-24.868 39.136-30.912 13.714-5.956 28.937-1.832 42.601 2.055 8.922 2.556 20.366 2.718 26.705-5.229 7.673-10.344 5.531-24.792 13.002-35.281 5.648-7.666 14.245-12.254 21.293-18.417 14.488-11.648 26.482-27.681 29.149-46.499 2.579-12.205-2.67-24.04-3.337-36.137-.375-7.414-1.49-14.756-3.567-21.873-3.599-12.717-3.904-26.222-1.612-39.212 3.016-19.055 17.661-33.701 21.122-52.623.53-3.379.551-7.105-1.486-9.998-5.953-9.541-17.267-13.837-23.499-23.121-4.569-6.236-6.554-13.81-8.171-21.241-1.651-7.53-4.848-14.677-9.411-20.88-6.9-9.374-13.594-18.902-19.832-28.73-7.332-11.52-10.864-24.881-14.418-37.933-3.551-12.899-1.357-26.698-5.607-39.454-2.199-6.548-9.03-9.507-14.138-13.449-10.552-7.026-17.687-18.554-19.924-30.966-2.388-12.017 1.558-24.277-.89-36.294-2.043-11.789-10.425-21.078-13.716-32.418-2.473-7.886-2.533-16.359-5.445-24.122-3.471-8.033-11.939-12.454-19.972-14.681.082.759.264 2.267.36 3.031 5.05 3.881 12.053 5.742 15.182 11.742 3.663 7.483 3.482 16.072 5.754 23.979 2.876 11.485 11.503 20.644 13.596 32.416 2.754 12.28-1.301 24.887 1.27 37.178 2.068 9.9 6.177 19.759 13.639 26.814 5.173 5.329 11.789 8.862 17.382 13.687 3.883 3.297 4.382 8.728 5.038 13.464 1.068 10.323 1.38 20.775 3.899 30.9 3.024 11.104 6.34 22.24 11.395 32.609 7.337 12.906 16.073 24.968 24.871 36.911 8.669 11.698 6.972 27.736 15.643 39.48 6.313 10.389 20.158 14.325 24.604 25.96-.938 18.875-14.622 33.582-19.489 51.299-5.186 16.548-3.553 34.412 1.071 50.88 1.689 6.096 1.972 12.447 2.426 18.723.797 11.5 5.725 22.737 3.554 34.375-3.923 19.971-17.829 36.35-34.024 47.916-9.719 6.756-19.571 15.357-21.995 27.544-1.893 8.748-1.842 19.837-10.398 25.114-10.184 5.352-21.536.188-31.72-2.375-11.699-3.526-24.678-2.955-35.669 2.602-10.753 4.778-18.496 13.869-26.711 21.916-9.6 9.451-22.097 14.906-33.357 21.971-8.475 5.254-16.031 12.077-25.263 16.06-16.159 6.775-33.975 5.087-51.048 5.959-13.409.215-26.664 2.381-39.764 5.146-10.523 2.237-21.321 2.022-32.016 1.986-10.529-.098-20.436 4.441-28.874 10.457z" fill="#fff"/><path d="M-540.044 826.297l-1.456 5.433c7.035-9.085 14.069-18.893 24.618-24.147 9.122-4.809 19.656-4.786 29.583-6.43 14.001-2.087 27.482-6.947 41.643-8.058 20.442-1.55 40.745 2.189 61.107 3.296 12.739.885 25.631 3.497 38.329.715 16.892-3.615 34.945-4.948 49.869-14.462 8.062-4.838 14.505-11.824 22.081-17.318 5.71-4.083 13.007-4.717 19.803-4.551 12.873.44 25.755 2.191 38.629 1.111 10.949-.964 20.742-6.315 30.635-10.632 8.193-3.643 16.583-7.911 22.157-15.191 4.11-5.46 7.642-11.405 10.255-17.733 4.458-10.016-3.018-20.326-.874-30.632 3.298-18.649 12.45-36.136 24.968-50.253 8.397-9.623 20.105-15.891 27.569-26.351 3.775-4.887 4.1-11.993.764-17.161-4.176-5.287-9.648-9.387-15.121-13.261 3.067 4.659 7.447 8.12 11.477 11.878 4.81 4.043 5.069 11.666 1.703 16.709-4.598 7.225-11.736 12.205-18.108 17.75-18.531 15.516-31.239 37.859-35.147 61.701-1.408 8.005 2.641 15.621 2.284 23.576-1.275 8.236-6.166 15.323-10.818 22.022-5.122 7.22-13.136 11.543-21.094 14.979-9.234 3.936-18.236 8.973-28.322 10.364-14.773 1.94-29.603-.679-44.404-.823-8.619-.157-16.9 3.478-23.113 9.382-10.104 9.316-21.717 17.642-35.267 20.963-10.912 2.569-21.947 4.698-33.017 6.563-11.649 2.01-23.384-.322-35.016-1.181-19.637-1.289-39.219-4.354-58.955-3.533-14.231.702-27.775 5.575-41.742 7.927-9.622 1.906-19.694 1.675-28.916 5.284-11.101 3.947-18.796 13.307-26.104 22.064zM-289.12-23.245c-7.924-.393-16 1.356-23.468 3.975 8.81 1.518 17.472-4.83 26.093-.924 2.932 12.794-4.35 24.823-9.9 35.826-3.914 8.492-9.411 16.605-10.552 26.08-1.435 13.55 7.038 26.37 18.068 33.464 8.946 3.42 18.546 4.683 27.596 7.83 5.254 1.83 8.716 6.414 13.072 9.628-2.301-7.178-9.859-10.452-16.39-12.729-9.245-3.32-20.323-2.601-27.832-9.76-8.823-7.36-14.672-19.145-12.49-30.765 5.35-18.114 19.036-33.167 20.91-52.393.479-3.92-.075-9.877-5.107-10.232z" fill="#fff"/><path d="M-511.15 765.99c-4.388.495-9.185.834-12.722 3.769 6.146-.55 12.177-2.41 18.398-2.113 13.148.423 26.551 1.577 39.463-1.555 17.882-3.665 36.455-6.71 52.362-16.247 8.499-5.066 17-10.869 22.864-19.004-5.886 2.832-9.748 8.434-15.184 11.943-15.639 11.625-34.766 16.628-53.584 20.193-7.183 1.446-14.363 3.104-21.726 3.253-9.96.642-19.917-.747-29.871-.239zm-.441 54.899c-12.877 7.429-21.303 20.415-28.776 32.874l1.375.369c7.383-10.106 13.685-21.449 23.956-28.975 9.011-6.358 20.175-7.957 30.534-10.93 10.914-2.854 21.235-7.763 32.423-9.565 8.071-1.389 16.306-1.32 24.459-.715 17.637 1.234 35.519 1.888 52.624 6.847 8.884 2.305 17.53 5.615 26.604 7.159 9.418 1.605 18.945.11 28.419-.12 16.742-.646 34.063-1.377 49.458-8.779 12.422-6.182 25.998-10.053 39.835-11.191 4.131-.323 8.226-1.017 12.135-2.362-18.563-.414-37.192 4.075-53.806 12.324-14.789 6.992-31.443 7.421-47.467 8.138-10.281.21-20.703 1.962-30.878-.298-12.305-2.785-24.269-6.894-36.612-9.539-14.452-2.624-29.163-3.33-43.793-4.226-6.958-.404-13.978-.299-20.875.863-11.188 1.802-21.589 6.615-32.479 9.551-9.096 2.634-18.665 4.118-27.136 8.575z" fill="#fff"/><path d="M-512.285 840.085c-6.251 4.645-11.168 10.762-15.794 16.971l1.445.387c4.675-5.158 8.921-10.792 14.458-15.072 8.679-6.914 19.069-11.067 29.077-15.593 10.471-4.569 20.623-10.245 31.898-12.597 9.468-2.173 19.239-1.661 28.851-1.117 17.043.533 34.385 2.531 50.19 9.31 6.358 2.531 12.418 5.84 18.971 7.867 7.384 2.295 15.179 2.216 22.827 2.46 13.959.369 27.93.637 41.903.844 16.914.168 33.371-4.406 50.15-5.809 11.699-1.35 23.496-1.274 35.233-.521 19.34 1.329 38.003 7.263 57.291 8.955 13.996 1.297 28.234-4.142 41.939.598 14.119 2.971 28.924 11.347 43.35 5.265 12.302-5.01 16.516-18.884 19.696-30.582 5.083-19.194 16.183-37.333 15.146-57.76-.643-10.285-.19-20.668 2.161-30.737 3.33-13.494 6.867-27.143 7.229-41.116-.505-15.289-4.05-30.34-8.88-44.801-4.359-12.183-3.927-25.355-3.597-38.088.546-13.879 5.78-27.013 6.836-40.831.668-7.992 2.93-17.784-3.938-23.853-9.635-8.315-23.018-9.599-34.337-14.603-7.298-3.4-10.316-11.387-13.685-18.113-5.318-11.523-12.023-23.477-10.679-36.63.62-11.738 7.737-21.523 12.412-31.903 4.05-8.937 7.979-17.936 11.471-27.098 2.712-6.978 3.37-15.439-.838-21.954-5.102-5.31-13.088-5.193-19.882-5.93-8.103-.395-16.108-1.833-24.179-2.46 5.325 4.255 12.67 2.823 18.994 3.855 7.842 1.093 16.901.165 23.373 5.525 3.77 5.345 2.98 12.506 1.124 18.42-4.78 14.189-10.875 27.905-17.889 41.119-4.944 9.36-7.915 20.226-5.967 30.8 1.73 8.861 5.748 17.04 9.506 25.18 3.897 7.62 7.055 17.044 15.482 20.777 9.893 3.93 20.406 6.386 29.916 11.296 4.414 2.327 7.704 6.88 8.02 11.931.892 20.464-7.817 39.89-7.822 60.279.092 10.484-.08 21.227 3.4 31.249 4.756 14.005 8.378 28.489 9.271 43.28.613 9.946-2.183 19.595-3.75 29.318-1.582 9.493-5.267 18.588-5.71 28.266-.771 11.35 1.407 22.919-1.426 34.108-3.604 14.685-10.94 28.144-14.515 42.836-1.828 7.381-3.957 15.102-9.473 20.651-5.891 6.668-15.38 8.972-23.945 7.609-12.272-2.009-23.866-6.996-36.131-8.974-10.455-.935-20.81 2.19-31.292 1.247-18.491-1.358-36.389-6.891-54.834-8.644-14.06-1.284-28.248-1.248-42.256.476-11.445 1.132-22.662 3.769-34.109 4.856-11.362 1.274-22.814.357-34.214.312-10.881-.297-21.769-.4-32.648-1.043-15.501-.843-28.031-11.484-42.913-14.749-10.89-2.286-21.977-3.722-33.102-4.175-10.88-.582-21.907-1.4-32.654.942-11.737 2.167-22.142 8.288-32.992 12.98-9.729 4.21-19.609 8.425-28.169 14.784z" fill="#fff"/><path d="M-481.407 836.064c-12.415 6.997-24.858 14.212-35.295 24.041l2.399.642c6.779-6.836 14.835-12.157 23.255-16.702 10.863-5.863 20.946-13.138 32.157-18.335 13.945-6.256 29.61-5.52 44.509-4.898 10.932.386 21.664 2.87 32.046 6.209 8.761 2.934 16.384 8.378 24.972 11.732 8.484 3.688 17.871 4.006 26.978 4.415 17.27.414 34.481 1.835 51.71 3.021 15.374 1.26 30.845-.027 46.174 2.019 20.982 2.552 42.202 3.543 62.957 7.84 10.087 1.634 19.8 4.944 29.875 6.681 9.846 1.69 19.252 5.248 28.383 9.215 7.909 3.534 15.662 8.154 20.897 15.215 5.07 6.776 9.79 14.301 17.387 18.549 11.672 6.829 25.833 5.267 38.185 10.006 10.437 4.482 14.92 15.81 19.686 25.289 5.221 12.444 13.303 23.413 22.265 33.399 5.746 6.385 13.107 11.292 21.373 13.718 13.901 4.176 26.642 13.41 32.783 26.86l1.403.37c-3.996-12.19-14.56-20.738-25.804-26.023-8.848-4.011-18.977-6.274-25.889-13.588-8.37-8.714-15.743-18.454-21.328-29.205-5.52-10.207-9.17-22.171-18.683-29.536-13.091-9.165-30.988-4.435-44.114-13.58-10.572-6.445-14.594-19.321-24.812-26.136-8.575-5.985-18.538-9.482-28.224-13.176-9.595-3.639-19.948-4.111-29.785-6.732-24.428-7.087-50-7.83-75.099-10.898-13.326-1.78-26.782-1.277-40.18-1.662-20.834-1.309-41.664-3.308-62.561-3.596-8.234-.19-16.306-2.217-24.057-4.881-8.346-2.913-15.432-8.619-24.021-10.906-10.176-2.817-20.394-6.096-31.032-6.403-12.675-.447-25.628-1.375-38.027 2.03-11.174 2.649-20.582 9.533-30.483 15.006zm228.274-877.461c-9.815 21.704-22.281 42.697-26.995 66.293-1.79 7.24.672 15.56 6.833 19.95 9.476 4.645 20.105.887 29.721-1.276 10.301-2.251 18.634-9.108 28.346-12.81a14.206 14.206 0 019.658-.468c1.545 9.383-3.715 17.905-6.42 26.54-2.373 7.958-4.977 15.883-6.662 24.024.668.254 2.023.753 2.695.993 3.419-8.941 5.208-18.424 8.668-27.353 3.078-8.4 7.007-17.174 5.489-26.324-3.029-1.88-6.743-3.056-10.319-2.449-11.588 2.734-20.808 11.219-32.359 14.038-6.015 1.518-12.11 3.166-18.353 3.178-4.817-.147-10.52-1.645-12.6-6.506-3.801-7.474.008-15.799 2.426-23.081 5.85-18.748 15.326-36.043 23.701-53.723l-3.829-1.026z" fill="#fff"/><path d="M-472.283 839.607c-11.055 8.039-23.051 14.711-33.645 23.384l4.447 1.192c12.451-8.311 24.624-17.043 37.257-25.08 7.061-4.413 14.71-8.157 23.036-9.267 3.687-.908 8.439-.688 10.561-4.454-15.169-1.747-29.668 5.624-41.656 14.225zm3.439 8.883c-9.117 4.9-16.887 11.847-25.441 17.621l2.511.673c7.627-6.128 16.382-10.915 22.93-18.294zm-4.713 12.145c-4.128 1.994-7.665 4.928-10.922 8.104l1.585.424c3.587-2.274 6.702-5.201 9.337-8.528zm20.373-8.642c-8.71 5.236-15.821 12.585-23.832 18.745l2.539.681c7.286-6.596 14.634-13.204 23.078-18.285 8.6-5.22 18.749-7.241 28.679-7.77 8.658-.495 17.038 2.233 25.246 4.597 13.697 3.926 25.154 13.241 39.055 16.635 17.465 5.297 35.881 2.331 53.744 4.574 21.614 1.819 42.058 9.524 63.049 14.456 15.241 3.271 30.83 5.357 46.456 4.668 14.324-.767 28.906.643 42.528 5.301 9.252 3.066 17.61 9.639 21.517 18.737 3.868 9.132 4.07 19.209 5.271 28.921 1.004 8.545 4.516 16.589 8.844 23.949l1.445.387c-2.967-8.003-7.542-15.565-8.463-24.193-1.12-10.127-1.452-20.614-5.657-30.063-4.586-10.378-14.526-17.556-25.1-20.961-15.011-4.188-30.703-4.375-46.16-3.866-26.848.706-52.363-8.719-78.175-14.627-15.767-4.225-32.154-5.802-48.448-5.593-9.208-.089-18.49-.575-27.507-2.555-14.503-3.224-26.462-12.794-40.584-17.044-9.07-2.852-18.424-5.704-28.052-5.124-10.258.577-20.663 2.936-29.473 8.43z" fill="#fff"/><path d="M-426.866 837.887c-17.524 1.038-34.396 9.519-46.171 22.436 6.833-3.226 12.045-8.872 18.624-12.496 10.053-5.703 21.672-8.158 33.153-8.362 9.671-.178 18.909 3.11 28.11 5.636 12.372 3.375 22.426 12.088 34.794 15.478 11.905 3.942 24.543 3.686 36.912 4.096 15.066.335 30.188 1.754 44.785 5.575 8.446 2.203 17.171 3.141 25.61 5.372 9.442 2.47 18.784 5.59 28.547 6.641 16.23 2.272 32.673.779 48.954 2.418 15.677 1.477 32.471 5.179 43.914 16.793 9.418 10.303 10.09 25.02 12.189 38.118 1.37 11.382 7.166 21.513 13.187 31.027l1.431.383c-4.396-9.966-11.128-19.129-12.539-30.191-2.401-14.383-3.073-30.785-14.091-41.683-13.673-12.828-33.41-15.648-51.378-16.881-15.953-.558-32.024-.004-47.805-2.833-13.252-2-25.777-7.102-38.969-9.327-10.976-1.738-21.687-4.969-32.786-5.971-16.709-2.115-33.711-.441-50.347-3.333-10.746-1.811-20.144-7.535-29.656-12.491-14.423-6.829-30.314-11.885-46.468-10.405zm-24.264.045c-6.639 1.095-12.361 5.115-16.969 9.854 6.172-2.274 11.819-5.786 16.969-9.854z" fill="#fff"/><path d="M-457.781 863.372c-4.435 2.634-8.381 5.971-12.389 9.201l2.834.759a72.13 72.13 0 009.555-9.96zm15.278-5.116c-8.443 3.622-15.161 10.008-22.126 15.802l4.293 1.15c5.852-4.391 11.235-9.555 17.947-12.663 8.445-3.967 18.17-5.92 27.386-3.782 5.738 1.251 11.386 2.9 17.003 4.661 10.729 3.281 20.022 10.12 30.942 12.911 13.126 4.209 27.029 4.338 40.672 4.653 13.793-.021 27.657 1.376 41.004 4.983 15.414 4.145 30.841 8.293 46.217 12.579a114.062 114.062 0 0039.359 4.331c13.897-.745 28.762-2.014 41.568 4.622 9.318 4.559 16.197 13.956 16.765 24.462.53 10.089 2.156 20.065 4.529 29.895l4.531 1.215c-3.022-10.381-4.372-21.111-5.235-31.861-.837-11.24-7.785-21.559-17.867-26.578-15.094-7.415-32.347-6.771-48.663-5.469-26.932 1.752-51.656-10.682-77.257-16.759-12.591-3.343-25.599-4.963-38.611-5.274-13.959-.37-28.08-.135-41.785-3.191-15.409-3.376-28.112-13.763-43.49-17.311-12.056-4.163-25.544-3.594-37.182 1.624z" fill="#fff"/><path d="M-438.085 833.015c-4.315.56-8.388 2.237-12.162 4.371 12.78-2.58 25.799-5.156 38.895-3.362 15.077 1.135 28.957 7.804 41.953 15.078 8.326 4.729 17.571 7.989 27.184 8.473 19.565 1.164 39.317 1.069 58.642 4.758 10.953 2.047 21.972 3.795 32.894 6.015 16.551 4.389 33.577 7.341 50.73 7.573 17.133.363 34.348 1.77 51.007 5.978 12.668 3.394 25.411 9.984 32.34 21.607 9.273 15.953 7.064 36.203 17.692 51.586 4.776 6.923 9.847 13.639 14.32 20.796l2.595.696c-6.595-11.413-16.136-21.088-20.882-33.51-4.325-12.701-4.852-26.612-11.091-38.682-5.403-10.416-15.514-17.625-26.362-21.525-20.963-7.453-43.411-8.517-65.446-9.049-12.591-.198-24.931-2.963-37.243-5.329-14.127-3.725-28.585-5.824-42.929-8.403-14.851-2.655-29.946-3.329-44.997-3.72-10.113-.528-20.607-.811-29.961-5.124-9.751-4.403-18.698-10.457-28.815-14.056-15.363-5.847-32.23-6.755-48.364-4.171z" fill="#fff"/><path d="M-427.297 849.54c-10.912 1.5-22.358 4.994-30.05 13.332 5.327-2.26 10.139-5.515 15.444-7.751 11.357-4.511 24.209-5.506 35.87-1.554 17.384 3.635 31.606 15.647 49.022 19.109 20.816 4.404 42.354.785 63.178 5.221 13.284 3.169 26.894 5.235 39.745 10.018 13.857 5.128 28.593 7.481 43.29 8.349 11.903.751 23.854-1.373 35.709.283 11.066 1.401 22.83 3.905 31.105 11.962 8.426 7.78 9.956 19.913 10.458 30.777.277 8.787 2.776 17.357 6.57 25.251l1.431.383c-2.833-8.674-6.151-17.389-6.23-26.634-.361-11.895-2.917-25.251-12.926-32.899-13.475-10.818-31.673-11.752-48.223-11.205-20.092 1.478-40.479-1.276-59.437-8.071-17.905-5.957-36.45-9.917-55.218-11.922-15.555-1.654-31.334.167-46.75-2.956-15.955-2.348-28.995-12.825-44.263-17.232-9.305-2.644-18.909-5.969-28.725-4.461zm180.424-755.163c-1.217 1.735-.767 2.638 1.349 2.709 1.217-1.736.767-2.639-1.349-2.71zm-101.402 427.591c-4.186 2.715-9.558 1.442-13.97 3.6 9.488 2.467 20.578-3.124 23.649-12.564-3.606 2.57-6.043 6.447-9.679 8.964z" fill="#fff"/><path d="M-415.629 861.379c-15.085-3.184-30.488 4.08-40.821 14.87l1.388.372c7.328-5.35 14.731-11.207 23.797-13.171 9.352-2.581 18.94.244 27.898 3.005 10.082 2.943 19.065 8.976 29.522 10.8-13.126-7.069-27.189-12.718-41.784-15.876zm170.533-759.83c-.687 6.212-.241 12.456-.776 18.663-.559 8.428-1.234 17.231 1.764 25.288 2.774 6.145 9.055 9.468 14.496 12.898 7.299 4.017 11.996 12.409 11.199 20.772-.459 12.262-1.269 26.115 6.915 36.254 11.722 11.297 29.041 10.52 44.124 10.679 3.224 3.678 5.613 8.848 3.993 13.771-2.268 12.394-10.464 22.387-14.833 33.978-4.775 11.707-6.336 26.006.529 37.25 5.181 8.777 11.658 19.226 22.972 19.985 10.818.476 23.365-1.293 32.3 6.157 8.756 8.396 3.561 22.172 10.401 31.379-.935-6.33-2.326-12.587-2.964-18.958-.558-5.943-3.398-11.67-7.912-15.588-8.02-3.624-17.013-5.356-25.821-4.692-6.358.554-13.334-.683-17.676-5.744-7.996-8.764-15.052-20.03-14.01-32.391.57-19.184 15.696-33.776 19.016-52.224 1.23-5.208-1.693-10.235-4.394-14.465-12.778-1.468-26.869 1.182-38.428-6.068-7.679-3.216-10.802-11.593-12.081-19.219-.991-7.805.016-15.661-.305-23.497-.043-5.338-2.735-10.273-6.059-14.309-5.224-5.418-12.921-7.721-17.85-13.511-2.585-2.98-3.114-7.064-3.652-10.835-1.345-10.021 1.01-20.045.572-30.079.058-1.956-.722-3.76-1.52-5.494z" fill="#fff"/><path d="M-421.217 866.578c-11.017-.8-21.054 4.727-29.538 11.197l2.567.688c8.956-7.893 21.585-12.154 33.371-9.117 18.115 3.545 33.951 14.304 52.396 16.673 21.444 4.422 43.633.842 65.024 5.626 14.895 2.32 28.886 8.071 43.317 12.178 12.915 5.387 26.853 7.632 40.746 8.586 13.175.881 26.501-3.177 39.508.353 9.33 1.823 18.132 8.365 20.68 17.821 2.45 9.264 3.099 18.903 5.036 28.285l2.721.73c-2.032-6.67-3.102-13.563-4.119-20.426-1.123-7.931-3.207-16.54-9.973-21.588-11.124-8.594-26.164-8.967-39.555-7.364-24.015 2.595-47.166-5.836-69.714-12.811-12.759-5.691-26.702-7.41-40.396-9.499-14.588-1.893-29.401-.309-43.979-2.409-9.398-1.345-18.953-2.551-27.815-6.174-13.005-5.336-26.144-11.234-40.277-12.749zm189.723-782.407c-1.882 7.306-1.677 14.9-2.765 22.329-.964 9.207-2.257 18.973 1.153 27.847 4.771 8.848 15.669 10.037 23.536 14.794 6.296 4.11 6.256 12.285 6.075 18.963-.534 10.858-1.864 22.555 3.399 32.543 5.451 10.068 18.193 14.084 28.931 11.379 8.465-2.021 18.436-3.713 25.999 1.729 2.828 4.204 1.032 9.953-.183 14.488-5.278 12.626-10.85 25.173-17.881 36.938-4.523 10.315-9.049 22.826-3.593 33.663 2.782 5.666 7.335 12.635 14.529 12.049 7.325-.068 14.166-3.096 21.185-4.827 7.572-2.109 16.154-5.468 23.576-1.011 6.478 7.303 7.495 17.478 9.096 26.71 1.032 5.408.524 11.457 4.038 16.07-.271-5.776-1.57-11.421-2.403-17.122-1.305-7.979-2.134-16.387-6.734-23.293-2.778-5.289-9.403-7.666-15.076-6.357-9.809 1.871-19.226 5.427-28.976 7.585-4.315.951-9.373.303-12.526-3.025-5.986-6.389-9.022-15.765-6.786-24.391 2.196-13.301 11.417-23.697 16.08-36.051 3.63-9.396 10.419-18.682 8.551-29.22-1.218-6.06-7.992-7.77-13.323-7.738-8.287-.55-16.145 3.077-24.379 2.888-9.578-.671-18.807-7.583-20.799-17.206-3.47-12.863 1.054-26.323-2.127-39.199-5.007-12.793-23.816-9.707-28.913-22.389-4.832-15.802 2.606-32.228.316-48.146z" fill="#fff"/><path d="M-419.194 824.293c-4.272-.107-9.475-.553-12.391 3.316 5.586 1.151 11.293.949 16.953 1.036 10.497.104 20.887 2.572 30.586 6.495 10.375 4.15 19.317 11.406 30.14 14.502 10.54 3.14 21.633 2.591 32.484 3.001 31.712 1.785 63.135 6.729 94.496 11.565 16.993 2.402 34.182 3.005 51.218 4.966 21.987 4.131 46.26 6.692 63.602 22.324 10.193 8.645 11.38 22.733 16.439 34.321 4.004 10.644 12.673 18.354 20.646 26.028 7.98 7.812 17.639 13.515 26.3 20.47 8.126 5.865 15.432 12.713 22.923 19.325l8.67 2.323c-5.964-5.691-12.4-10.847-18.583-16.281-11.075-9.784-23.94-17.324-34.878-27.283-8.167-7.455-17.037-14.978-21.314-25.5-4.928-11.402-6.05-24.946-15.288-34.072-13.972-14.067-33.932-20.153-53.081-22.981-17.818-4.263-36.25-3.875-54.365-5.96-23.016-3.323-46.023-6.794-69.061-10.032-18.456-2.553-37.123-2.634-55.671-3.947-15.148-.703-28.086-9.091-41.429-15.239-12.111-5.247-25.282-7.602-38.396-8.377z" fill="#fff"/><path d="M-419.906 872.738c-8.608-.756-16.635 3.052-24.087 6.849l2.679.718c6.607-3.166 13.664-6.331 21.169-5.72 17.304 2.139 32.88 10.782 49.88 14.223 8.63 1.967 17.477 2.561 26.154 4.239-9.894.449-19.634-2.085-29.341-3.678-14.296-2.536-27.694-8.534-41.998-10.983-6.979-1.283-14.12.175-20.393 3.385l5.695 1.526c4.555-1.007 9.22-2.255 13.915-1.373 8.961 1.573 17.914 3.566 26.301 7.167 6.312 2.76 13.548 3.029 19.495 6.699-4.531-.763-8.942-2.035-13.428-2.966-.185 2.764 3.886 2.049 5.62 3.041 6.509 1.518 13.181 2.207 19.795 3.167 18.066 2.719 36.766.431 54.421 5.974 15.764 3.397 29.909 11.716 45.597 15.228 19.312 3.173 38.639 8.367 58.374 6.762 8.332-.626 17.477-.358 24.551 4.668 7.148 5.361 8.075 14.864 12.273 22.204-1.025-10.372-5.641-21.932-15.818-26.314-9.891-4.441-20.91-1.811-31.333-2.136-17.056-.763-33.806-4.408-50.466-7.939-13.236-3.126-25.279-9.919-38.551-12.963-11.21-3.561-22.867-5.059-34.515-6.254 24.095-1.489 47.435 6.63 69.852 14.488 20.433 5.836 41.395 12.446 62.932 10.347 10.355-.882 22.437-1.753 30.776 5.673 7.168 7.142 7.926 17.834 10.828 27.039l3.212.86c-1.154-10.617-3.828-21.626-10.663-30.064-7.663-7.426-19.213-8.594-29.39-7.815-28.13 2.801-56.12-4.91-81.947-15.472-13.155-4.774-26.931-7.848-40.925-8.648-7.966-.795-16.141.144-23.947-1.978 16.304.652 32.941-.052 48.818 4.383 11.768 3.214 23.721 5.965 35.073 10.512 15.036 5.157 30.609 9.27 46.573 9.785 12.019.933 24.221-3.081 36.045.599 7.316 1.314 13.934 5.961 16.946 12.848 3.577 8.422 4.533 17.647 6.153 26.583l2.567.688c-3.977-12.261-2.925-27.299-13.372-36.509-9.832-7.916-23.469-7.748-35.386-6.366-17.766 1.379-35.73-1.553-52.595-7.125a1206.147 1206.147 0 00-33-11.175c-14.989-3.595-30.339-6.068-45.804-5.983-10.941.153-21.863-.892-32.627-2.859-19.479-2.104-36.649-13.101-56.108-15.335zm73.756 24.383c1.2-1.168 4.653-.138 3.756 1.804-1.217 1.119-4.663.12-3.756-1.804zm7.312.319c1.991-.866 2.826-.281 2.506 1.755-1.987.852-2.823.267-2.506-1.755zm2.307-396.854c-.274 3.041-2.002 6.852.092 9.475.049-2.877 4.195-8.643-.092-9.475zm64.529-230.391c-1.494 1.481.491 4.676 2.462 4.166 1.491-1.467-.505-4.68-2.462-4.166zm52.444-187.024c-3.748 10.282-5.268 21.567-3.78 32.455 1.066 8.366 9.166 13.938 17.039 15.024 7.059 1.485 16.46 1.025 20.215 8.502 2.64 11.527-3.003 22.821-4.243 34.181-1.447 8.431.552 17.469 5.944 24.166 3.018 3.216 7.545 4.895 11.926 4.369 12.538-1.23 24.774-4.979 37.431-5.305 3.104-.026 6.349-.014 9.262 1.233 2.296 3.55 3.061 8.103 1.492 12.107-5.416 15.162-14.422 28.685-21.09 43.302-2.907 6.474-6.717 12.556-8.883 19.349-1.806 5.505-.777 11.71 2.037 16.693 4.33 1.852 9.338 1.735 13.727.172 11.584-3.954 22.601-10.844 35.153-11.002 5.025-.233 8.404 4.494 10.115 8.655 5.334 14.325 3.32 30.369 9.545 44.452 2.908 6.151 9.568 8.959 15.424 11.567 6.784 2.796 13.994 6.022 21.506 4.694 5.34-.511 11.721-2.668 16.053 1.758 4.726 5.089 5.603 13.149 3.327 19.567-4.557 12.518-8.106 25.426-14.038 37.41-5.776 11.289-6.806 24.165-7.825 36.608-.705 6.899 1.254 14.286 6.75 18.858 5.787 4.832 11.441 9.823 16.49 15.449 7.458 8.244 19.33 9.95 27.25 17.535 5.274 5.01 8.067 11.868 12.067 17.815 5.339 8.413 13.563 14.921 17.079 24.47 4.576 11.204 3.32 23.523 4.613 35.306.642 6.748 3.166 13.098 5.56 19.367 5.25 13.852 5.57 28.82 7.101 43.361 1.224 11.313.072 22.682.52 34.028.307 10.135.382 21.02 6.233 29.766 6.033 9.02 14.714 15.846 21.168 24.527 6.935 8.179 12.073 17.621 18.192 26.379 6.876 9.968 19.838 13.442 26.27 23.833 10.507 16.118 7.479 37.518 19.148 53.165 4.798 7.29 15.105 10.684 22.975 6.397 8.081-4.516 14.704-11.726 23.867-14.221 6.889-2.368 14.356-.382 20.399 3.269 8.242 4.706 15.829 11.013 25.286 13.201 13.648 2.934 27.476 7.889 41.624 5.419 13.19-1.642 23.733-11.864 29.079-23.569 5.265-12.524 8.909-25.617 12.724-38.62 1.906-6.608 5.778-12.643 11.095-16.997 2.415-2.618 6.577-.585 8.421 1.79 5.283 6.713 6.926 15.339 8.555 23.511 3.223 16.198 7.766 32.237 14.772 47.222 3.545 6.969 7.868 14.403 15.298 17.763 8.25 3.775 18.204 104.183 23.661 97.338 9.47-11.773 14.32-26.621 24.472-37.911 9.066-10.211 20.145-18.453 28.65-29.206l1.93-7.203c-6.817 6.586-12.836 13.956-19.902 20.295-6.874 6.239-13.588 12.777-19.064 20.308-7.32 10.092-11.177 22.467-19.702 31.725-4.353 4.687-11.28-95.962-17.649-98.286-6.647-2.969-10.366-9.684-13.689-15.797-8.118-16.11-12.234-33.856-15.76-51.444-1.8-7.706-3.612-16.092-9.504-21.824-3.646-2.948-9.879-5.386-13.502-1.12-13.032 11.376-13.513 29.892-19.38 45.054-4.817 12.253-11.028 26.119-24.171 31.235-15.47 4.989-31.858.553-47.077-3.194-12.759-2.998-21.593-14.303-34.488-16.961-9.524-2.612-19.278 1.696-26.894 7.225-5.329 3.613-10.387 8.744-17.206 9.054-5.82.231-10.323-4.512-13.159-9.079-6.036-10.466-7.661-22.639-10.519-34.195-2.807-10.789-8.549-21.402-18.039-27.677-5.727-3.821-11.675-7.658-15.642-13.446-6.739-9.585-12.596-19.822-20.305-28.705-6.395-8.229-15.04-14.684-19.933-24.031-4.237-7.471-3.695-16.34-4.333-24.622-.027-23.242.095-46.759-5.027-69.561-2.52-11.074-8.526-21.32-8.734-32.888-.253-10.391.1-21.132-4.015-30.917-2.695-8.066-8.738-14.184-14.113-20.5-5.909-6.79-8.808-15.663-14.978-22.267-5.924-6.283-14.12-9.472-21.44-13.751-6.953-3.955-11.598-10.692-17.721-15.673-4.4-3.782-10.062-7.452-10.825-13.751-.955-8.668.305-17.465 1.884-25.995 2.17-11.638 8.373-21.879 11.938-33.053 2.845-8.763 6.99-17.163 8.375-26.317 1.057-8.882-2.678-19.634-12.002-22.373-8.08-.706-16.334 3.945-24.213.359-7.354-3.249-16.24-5.495-20.836-12.64-6.373-12.799-4.453-27.709-8.784-41.119-1.673-5.986-5.219-12.73-11.8-14.147-11.814-1.811-22.892 3.843-33.479 8.23-4.986 1.884-10.651 5.182-15.914 2.267-2.757-5.645-.565-12.085 1.438-17.598 8.147-19.577 20.209-37.322 27.465-57.273 2.301-5.614.452-11.843-2.384-16.861-16.761-4.446-33.681 3.149-50.458 3.815-7.934.598-11.896-7.566-13.005-14.199-2.221-15.056 6.512-29.3 4.701-44.367-1.885-7.051-9.366-10.44-16.066-11.137-7.032-1.869-16.677-1.895-20.352-9.336-3.796-11.31-.342-23.356 1.51-34.703l-2.833-.759zm-168.246 641.816c-1.299.751-1.471 4.256.743 3.119 2.899-.773 2.123-6.293-.743-3.119zm121.728-446.327c1.141 4.158 3.973 7.505 7.426 9.996-1.298-4.08-4.03-7.461-7.426-9.996zm-113.169 436.718c-1.38.773-1.436 4.295.794 3.041 2.913-.829 2.044-6.224-.794-3.041z" fill="#fff"/><path d="M-394.838 889.838c-8.123-2.959-16.787-5.19-25.476-3.906l7.042 1.887c6.304.379 12.412 1.881 18.525 3.308l-.091-1.289zm139.441-597.331c-1.137 1.772-.637 2.658 1.48 2.669 1.14-1.787.641-2.673-1.48-2.669zm-110.111 409.817c-1.833 1.902 1.511 3.506 2.512 1.456 1.854-1.926-1.494-3.515-2.512-1.456zm115.195-401.969c1.41 6.352 3.996 12.357 5.375 18.716 3.511 15.176 8.633 29.896 12.7 44.906 3.395 12.076 8.587 23.504 13.18 35.148 3.257 8.382 8.037 16.133 10.499 24.844 2.467 8.637 5.287 17.248 9.825 25.055 3.403 5.817 6.492 12.303 5.88 19.242-.875 10.676-7.3 19.669-11.999 28.958-6.333 14.375-4.16 30.563-7.868 45.581-2.071 10.761-8.208 20.027-14.347 28.855-3.81 5.465-8.841 9.986-12.362 15.664-6.397 11.363-1.59 25.517-8.362 36.765-4.443 7.492-7.423 15.693-11.468 23.382-7.393 10.87-21.225 14.402-33.534 16.07-8.562 1.257-17.112 2.924-25.453 5.264-9.305 3.586-17.392 9.696-25.091 15.924-4.665 3.777-9.924 7.017-13.371 12.083 10.553-6.051 18.789-15.356 29.356-21.403 15.589-10.315 35.339-7.822 52.34-14.206 8.597-2.678 16.317-8.766 19.654-17.292 4.54-11.95 13.226-22.595 13.663-35.841.194-7.848.376-16.497 5.837-22.739 9.657-10.956 18.682-22.924 23.675-36.785 3.221-12.304 3.861-25.074 5.267-37.669 1.171-15.592 15.382-26.713 15.907-42.478.773-9.168-4.269-17.23-8.457-24.944-5.217-9.539-6.611-20.552-11.158-30.348-7.183-14.55-12.991-29.74-18.481-44.995-4.781-16.947-10.369-33.688-14.403-50.841-1.521-5.885-2.657-12.193-6.804-16.916z" fill="#fff"/><path d="M-301.347 551.923c-7.637 10.489-16.185 20.674-20.92 32.903 2.12-1.403 3.416-3.659 4.717-5.764 8.692-15.774 20.488-29.497 31.746-43.455 6.544-7.757 14.47-14.948 17.578-24.92 2.543-8.649 2.263-17.873.913-26.693-.686-4.397-1.211-8.947-3.381-12.914-.528 6.57 1.889 12.816 2.391 19.301 1.228 12.307-1.921 25.519-10.592 34.647-8.012 8.523-15.016 17.887-22.452 26.895zm-89.98 339.233c-.329 2.124 4.824 3.489 5.611 1.503-1.231-1.579-3.756-2.255-5.611-1.503zm180.213-637.437c2.227 4.089 6.229 7.614 6.129 12.643.077 7.515-3.01 14.603-3.637 22.05-1.385 9.545.315 19.135 2.503 28.42 3.468 17.527 14.33 32.431 25.905 45.57 5.523 5.814 11.844 10.954 16.209 17.781 4.124 5.484 5.666 12.413 9.896 17.836-2.853-14.549-13.186-26.091-23.791-35.78-10.385-11.857-20.63-24.684-24.994-40.104-3.214-11.741-5.847-24.079-3.357-36.233.941-8.732 5.366-18.005 1.308-26.541-.976-2.865-3.48-4.574-6.171-5.642zm-157.964 624.768l-.049 1.191c12.69 3.144 25.774 5.04 38.882 4.715 15.745-.236 31.412 2.006 46.792 5.209 10.033 2.117 19.284 6.702 29.171 9.307 12.903 3.246 25.644 7.879 39.096 8.233 13.008 1.228 26.002-1.986 39.006-.353 8.53.992 16.996 4.524 22.998 10.797 4.672 4.954 6.451 11.781 7.181 18.372.921 8.178 2.072 16.341 3.572 24.433l2.609.699c-3.474-10.938-3.294-22.552-5.916-33.638-2.361-10.55-12.005-17.709-21.89-20.658-11.065-3.537-22.769-2.279-34.11-1.42-21.225 1.325-42.108-4.346-61.825-11.676-23.571-8.151-48.613-12.107-73.566-11.285-10.843.511-21.22-3.293-31.951-3.926z" fill="#fff"/><path d="M-187.829 238.921c2.031 2.802 4.627 5.122 6.944 7.699-1.274 12.947-9.267 24.033-12.361 36.536-3.186 10.373-2.146 21.532.888 31.81 2.002 6.616 6.475 12.028 10.476 17.524 4.231 5.588 8.315 11.558 14.222 15.549 4.81 3.26 10.644 4.492 15.494 7.658 7.387 5.425 12.37 13.427 15.913 21.75 2.751 5.838 5.151 12.425 10.594 16.352 8.602 5.269 18.926 4.559 28.566 4.494 5.828.583 14.96 2.248 14.885 9.707.596 12.364-6.175 23.551-12.28 33.819-8.238 13.578-16.057 28.337-16.847 44.528-.336 9.39 4.066 17.989 9.639 25.246 6.88 8.72 9.244 19.873 14.712 29.374 7.995 12.585 23.553 17.928 31.483 30.586 5.834 11.165 2.746 24.317-.339 35.83-2.184 9.557-7.121 18.106-10.266 27.316-3.216 9.928-.729 20.677 3.852 29.729 4.086 7.927 7.716 16.71 6.504 25.836-3.297 19.823-13.29 37.535-19.601 56.431-3.456 10.149-8.977 21.1-19.707 25.011-11.567 3.552-24.12.46-35.695 4.1-9.286 2.839-16.647 9.715-25.864 12.693-12.52 4.47-25.983 3.316-39.009 4.235-6.514.572-13.341-.039-19.498 2.57 6.841.84 13.642-.693 20.472-.82 13.393-.715 27.324.264 40.033-4.803 7.764-2.825 14.434-7.855 21.929-11.249 12.59-5.069 26.8-.81 39.515-5.393 10.276-4.124 15.444-14.823 19.126-24.581 4.963-13.643 10.417-27.095 15.965-40.506 3.687-8.372 5.062-17.77 3.945-26.843-1.512-11.977-10.818-21.408-11.437-33.628-1.105-8.166 2.94-15.63 5.658-23.027 4.202-9.845 6.888-20.261 9.042-30.714 1.235-8.984.794-19.29-5.429-26.48-6.795-8.141-16.023-13.653-23.851-20.687-7.135-6.817-9.683-16.665-13.767-25.328-4.16-9.331-11.998-16.834-14.721-26.818-3.117-16.591 4.789-32.741 12.852-46.728 7.412-12.4 16.263-25.679 15.261-40.74.232-5.355-5.04-7.731-9.373-9.012-8.55-3.164-17.797-.074-26.488-2.372-4.664-1.054-9.592-2.977-12.128-7.313-6.362-9.816-9.261-21.834-17.931-30.101-6.5-7.671-17.851-7.898-24.564-15.28-5.934-6.3-10.996-13.39-15.628-20.68-5.673-8.623-6.992-19.3-6.588-29.394.784-16.84 13.304-30.46 14.094-47.268-2.111-3.064-5.407-5.015-8.692-6.618zm-110.423 673.367c-18.242-8.906-39.005-9.639-58.935-9.441l8.585 2.3c13.561-.219 27.375.413 40.309 4.887 8.396 2.671 15.825 7.49 23.239 12.141l11.91 3.191c-8.421-4.258-16.905-8.397-25.108-13.078z" fill="#fff"/><path d="M-306.152 916.521c-8.484-6.607-19.425-8.982-29.993-8.036l11.013 2.95c3.405-2.217 7.637-1.008 9.511 2.549l9.469 2.537zm152.237-517.879c1.42 7.604 6.796 14.252 13.356 18.161 7.837 4.869 17.632 1.534 25.906 4.94 2.662 1.737 4.102 4.892 5.141 7.803.14 3.966-1.779 7.65-3.319 11.21-7.498 15.748-16.753 30.875-21.189 47.879-2.455 8.432-5.369 17.177-3.583 26.052 1.491 7.623 2.557 15.99 7.858 22.075-2.657-9.892-7.178-19.56-6.513-30.066 1.95-18.108 9.984-34.735 17.907-50.896 4.212-8.367 9.555-16.581 10.615-26.094-.65-4.192-2.99-9.153-7.573-10.005-8.291-2.838-17.97-.044-25.495-5.236-6.143-3.617-8.616-10.66-13.111-15.823zm-59.086 532.501c-19.745-1.785-39.344-5.682-59.231-5.533l9.118 2.443c17.596-.07 34.833 4.112 52.351 5.059 9.556.363 19.773-1.128 28.539 3.644 6.047 3.185 8.369 10.007 10.911 15.895l2.399.643c-2.786-7.278-6.047-15.254-13.485-18.917-9.507-4.64-20.441-2.272-30.602-3.234zm102.052-559.361c-1.099 1.857 1.891 4.223 3.68 3.439 1.035-1.845-1.916-4.185-3.68-3.439zm16.686-21.758c2.285 4.208 5.647 8.104 10.565 9.166-2.621-3.968-6.551-6.752-10.565-9.166z" fill="#fff"/><path d="M-207.357 936.899c-10.719-.118-21.197-3.378-31.951-2.467l8.431 2.259c8.992.559 17.919 2.033 26.939 2.207 5.14.174 10.556.105 15.257 2.538 4.305 2.057 7.273 5.907 10.424 9.355l1.487.398c-2.316-3.871-4.852-7.816-8.835-10.177-6.328-4.495-14.417-3.713-21.752-4.113zm142.352-575.875c-5.475-.775-11.452-3.611-16.842-1.338 10.954 2.213 22.015 3.973 32.904 6.484 2.242 1.173 4.175 2.879 5.713 4.886.834 22.586-12.797 42.033-17.52 63.475-1.785 7.843-5.117 15.393-5.733 23.474.288 8.911 2.953 17.766 7.242 25.552 2.866 5.463 9.193 7.158 14.416 9.491 5.45 2.107 9.34 6.67 14.295 9.609 6.37 3.948 14.304 4.75 20.183 9.576 8.049 6.491 12.371 16.843 12.92 27.028.882 15.284-3.904 30.284-3.217 45.562.903 15.26 9.457 28.507 16.88 41.376 5.467 9.335 5.598 20.687 3.733 31.067-3.557 23.711 1.627 48.47 14.231 68.822 4.08 7.61 10.746 13.82 13.022 22.33 3.538 11.708 2.246 24.107.778 36.039-.588 5.335-1.899 10.732-1.025 16.113 2.384-8.842 3.189-18.017 4.002-27.114.758-8.72.537-17.658-2.16-26.055-2.307-7.661-7.792-13.675-11.892-20.372-11-17.304-16.946-37.873-16.089-58.41.082-10.181 3.435-20.283 1.41-30.456-1.136-10.237-7.938-18.349-12.534-27.18-3.818-7.464-7.451-15.284-8.283-23.739-1.902-17.198 5.063-34.157 2.576-51.362-1.128-9.707-5.625-19.354-13.524-25.338-4.993-3.866-11.301-5.181-16.888-7.897-6.907-3.009-11.823-9.187-18.878-11.92-4.084-2.042-9.192-3.125-11.732-7.282-3.976-6.257-6.157-13.493-7.323-20.757-1.546-8.089 2.239-15.818 3.953-23.56 4.99-23.057 19.435-43.805 19.153-68.003-4.382-8.954-15.52-8.011-23.77-10.101zm-61.94 181.334c-1.437 1.661.25 5.409 2.435 5.392 1.276-1.734-.208-5.397-2.435-5.392zm6.439 27.202c-1.374 1.648.013 5.451 2.268 5.453 1.359-1.652-.045-5.444-2.268-5.453zm167.48 233.146c-1.525 1.427-1.596 5.622.67 6.199 1.42-1.486 1.546-5.605-.67-6.199zm1.432 11.264c-1.524 1.818-.564 6.259 2.09 6.339 1.304-1.833.054-5.81-2.09-6.339zm4.819 9.959c-1.164 1.99 1.819 4.942 3.919 4.511 1.038-2.024-1.903-4.738-3.919-4.511zm7.788 7.128c8.45 8.87 21.896 9.132 31.938 15.48 12.482 7.227 19.741 20.819 32.681 27.402 12.127 6.59 27.213 10.497 40.592 5.459 11.742-5.778 17.529-19.185 29.662-24.511 6.6-3.589 14.116-.386 20.442 2.211 9.052 4.036 18.324 8.206 28.406 8.515 6.88.188 14.359 1.68 20.773-1.552-9.671-.379-19.499 1.005-28.934-1.884-12.272-2.235-23.009-10.138-35.577-10.707-10.709 1.811-18.158 10.59-25.098 18.195-5.95 6.607-14.674 10.997-23.707 10.141-12.614-.28-24.672-5.557-34.428-13.363-5.642-4.868-10.101-10.953-15.89-15.665-5.765-5.141-12.677-8.859-20.074-10.991-7.275-2.085-13.628-6.376-20.786-8.73zm-34.5 174.603c.775-2.67-3.063-3.67-3.718-1l3.718 1zm3.11-1.85c-.388 2.13 4.797 3.43 5.518 1.41-1.18-1.6-3.717-2.23-5.517-1.41zm7.317 1.32a88.913 88.913 0 004.527 4.54l5.948 1.59c-3.235-2.46-6.674-4.66-10.475-6.13zm34.86-32.467c-2.892 1.197-6.737 2.138-7.677 5.588-2.458 5.526.393 11.271 2.192 16.508 2.81 7.301 4.126 15.071 4.822 22.861l2.342.62c-1.601-8.55-2.594-17.31-5.958-25.4-1.769-4.733-4.31-10.289-1.297-15.08 8.35-5.573 19.432-6.139 26.756-13.552 8.684-7.048 8.952-20.054 17.738-26.864 9.322-5.387 20.626-2.012 30.732-4.376 9.547-1.851 17.785-7.514 25.685-12.921 11.391-8.174 19.11-20.763 31.487-27.619 7.439-4.252 16.194-3.035 24.304-4.458-8.397-2.386-17.417-.875-25.158 2.875-12.274 6.417-19.718 18.824-30.714 26.923-9.528 6.882-20.088 13.804-32.227 14.163-8.945.778-19.228-1.074-26.744 4.978-7.084 6.965-8.046 17.964-15.252 24.881-5.566 5.958-13.548 8.364-21.031 10.873z" fill="#fff"/><path d="M90.674 997.223c-6.425 5.907-6.915 15.257-9.142 23.177l1.416.38c2.364-7.42 2.847-16.12 8.687-21.87 5.208-5.406 12.823-6.947 19.678-9.189 9.3-2.835 17.796-7.721 26.998-10.809 7.123-2.455 14.41-4.791 20.621-9.176 13.051-8.978 22.02-22.361 32.987-33.553 9.702-9.89 23.556-14.741 37.155-15.777 13.83-.718 28.707 3.855 41.614-3.07-4.635.353-9.198 1.222-13.805 1.748-9.609 1.128-19.213-1.355-28.829-.426-13.896 1.303-28.007 6.325-37.828 16.605-10.82 11.261-19.912 24.43-32.893 33.427-6.635 4.618-14.563 6.542-22.019 9.344-8.465 3.029-16.304 7.595-24.971 10.088-6.905 2.093-14.335 3.894-19.669 9.101zm18.655 17.967c-5.478 1.65-9.913 5.35-14.33 8.82l2.3.62c5.235-4.5 11.379-7.85 18.158-9.3 13.274-3.08 25.847-8.42 38.445-13.52 11.656-4.897 23.522-10.07 33.018-18.631 9.346-8.285 17.015-19.172 29.085-23.763 9.103-4.062 19.346-4.357 29.063-2.746 9.027 1.214 18.275 4.52 27.378 2.024 10.02-3.109 16.751-12.291 26.743-15.468 8.883-2.736 19.169-1.846 26.858 3.631 7.58 5.266 14.384 12.476 23.786 14.364 10.377 1.953 20.634-1.589 30.322-4.922 7.882-2.704 15.946 99.201 24.057 97.321l.647-2.41c-10.549 3.12-21.27-98.355-31.612-94.55-8.413 3.118-17.831 4.431-26.508 1.519-9.31-3.021-15.534-11.159-24.094-15.515-6.859-3.583-15.039-3.412-22.403-1.683-11.607 2.803-19.048 14.022-30.807 16.439-10.265 1.554-20.147-2.75-30.29-3.391-11.25-1.163-22.729 1.946-32.07 8.246-10.294 6.828-17.32 17.45-27.535 24.374-13.762 9.33-29.647 14.691-44.933 20.901-8.154 3.38-16.873 5-25.278 7.64z" fill="#fff"/><path d="M181.682 1017.03c-14.395 6.42-30.009 10.16-43.505 18.55l4.504 1.21c6.669-2.28 12.874-5.69 19.496-8.07 8.15-2.98 16.552-5.43 24.181-9.67 13.417-7.08 24.076-18.36 37.544-25.36 5.78-3.056 12.396-4.458 18.926-3.972 7.875.409 15.653 3.532 23.585 1.985 9.08-1.735 17.29-6.729 26.613-7.406 10.856-.733 22.2-3.171 32.677.991 7.966 2.646 15.113 8.293 23.823 8.279 15.121.576 29.469 98.673 44.49 98.103l1.144-4.27c-14.185.7-27.736-98.066-41.955-97.858-10.058.224-18.972-4.948-28.197-8.172-10.549-3.835-21.864-1.449-32.732-.84-9.365.44-17.513 5.6-26.553 7.407-11.371 1.362-22.642-4.382-33.974-1.369-19.401 5.185-32.323 22.102-50.067 30.462zm43.001-129.447c-.818 1.933 2.643 2.875 3.901 1.828.808-1.951-2.677-2.915-3.901-1.828zm51.689-2.177c-14.761 5.315-30.662 3.944-46.015 3.953 7.612 1.949 15.526 2.656 23.368 1.897 9.962-.987 20.412-1.663 29.259-6.847 8.833-5.247 18.135-9.662 27.113-14.66 4.519-2.672 10.129-3.968 15.176-1.984 6.899 2.812 12.449 8.137 17.298 13.665 5.253 5.982 8.207 14.147 15.136 18.532 7.411 3.821 15.972 1.947 23.854 1.094 12.621-1.93 25.943 102.404 37.646 96.602l.377-1.404c-9.368 3.313-19.149 5.196-29.06 5.876-9.841.7-19.931-100.205-29.728-102.755-8.384-3.721-11.258-13.31-17.274-19.587-5.992-6.255-12.651-13.276-21.63-14.614-8.542-1.115-15.438 4.983-22.666 8.448-7.73 3.708-14.972 8.404-22.854 11.784z" fill="#fff"/><path d="M215 1039.99c-6.235 3.91-12.635 7.54-19.082 11.06l2.679.72c8.972-4.7 17.523-10.13 25.824-15.91 6.949-4.67 14.616-9.04 23.219-9.28 7.771-.32 15.624-.57 23.111-2.87 13.644-3.67 27.816-6.06 41.97-5.35 10.45.39 19.202 7.34 29.554 8.1 14.03 1.17 27.994-1.23 41.952-2.26l.636-2.37c-12.809 1.85-25.768 3.36-38.734 2.99-12.463-.06-23.158-8.18-35.608-8.46-15.165-.3-30.231 2.67-44.816 6.6-9.41 2.46-19.483.44-28.687 3.87-8.115 2.96-14.789 8.62-22.018 13.16zm53.367-176.893c4.733-1.17-.955 4.74 0 0zm14.334-2.66c-3.882.238-7.753 1.218-10.925 3.573 3.934.076 8.023-.709 10.925-3.573zm3.55-2.811c-2.194 3.084 3.665 2.426 3.935.016.084-2.22-3.179-1.153-3.935-.016zm20.537 41.363c-13.615.926-25.272 9.134-35.536 17.475 5.353-1.907 10.12-5.054 14.779-8.244 8.06-5.561 18.103-8.362 27.883-7.322 8.938 1.206 16.722 6.949 21.94 14.126 4.14 5.202 7.551 11.549 13.688 14.683 8.539 3.371 17.84.642 26.299-1.636 11.856-3.565 24.087 98.449 36.233 96.209l.644-2.4c-12.227 2.98-24.766-99.338-36.848-95.713-7.917 2.107-16.401 4.815-24.543 2.378-6.946-3.201-10.465-10.494-15.15-16.128-6.741-9.015-18.1-14.542-29.389-13.428zm-4.31-51.477c-4.279 1.773-7.889 4.809-10.529 8.601 4.406-1.574 7.844-4.866 10.529-8.601z" fill="#fff"/><path d="M314.916 830.665c-4.347 5.336-8.944 10.485-12.65 16.294 8.414-5.48 12.526-15.214 20.156-21.581 2.188-1.656 4.633-4.552 7.679-3.24 4.239 1.407 6.452 5.717 8.497 9.365 5.062 10.175 7.853 21.472 14.376 30.909 4.422 6.783 10.113 13.936 18.634 15.301 11.031 1.812 23.104 105.029 33.014 99.468 10.316-6.851 12.433-20.084 16.79-30.789 3.828-10.246 10.272-19.369 18.615-26.433l.745-2.78c-10.938 7.994-18.337 19.841-22.564 32.583-3.877 9.645-6.096 21.797-16.329 26.88-9.857 4.522-21.477-98.589-31.919-101.477-8.557-2.127-13.319-10.221-17.558-17.24-5.468-8.884-7.779-19.225-12.665-28.374-2.616-4.824-6.904-9.976-12.98-9.467-4.828 2.363-8.384 6.602-11.841 10.581zm29.648 251.115c-9.801 1.84-19.803.23-29.687 1.15l7.042 1.88c16.356.91 32.372-2.81 48.001-7.21l.354-1.32c-8.68 1.36-17.094 3.92-25.71 5.5z" fill="#fff"/></symbol><symbol fill="none" viewBox="0 0 313 856" id="decor-right" xmlns="http://www.w3.org/2000/svg"><path d="M285.634 1404.75c15.83 16.17 32.006 32.28 51.366 44.25v-3.94c-13.268-7.59-24.737-17.76-35.167-28.8-13.453-14.25-28.752-26.72-41.328-41.78-15.322-18.81-20.629-43.14-25.798-66.24-3.9-16.92-4.5-34.4-3.646-51.69.9-14.65 6.115-28.57 7.73-43.12 2.169-14.53-1.2-29.05-4.315-43.19-6.461-26.65-11.353-53.63-16.614-80.53-4.384-24.1-12.715-47.29-15.876-71.64-4.707-33.225-11.907-66.173-13.845-99.767-1.639-16.139-.554-32.394-2.031-48.557-1.454-15.794.139-31.68 2.469-47.313 2.169-13.58 6.069-27.368 14.745-38.297 8.308-10.56 17.907-20.889 21.299-34.285 5.677-20.705-2.538-41.779-.346-62.668 2.584-17.846 18.114-29.375 30.69-40.58 16.937-13.119 30.437-30.02 42.066-47.866 7.431-11.436 11.93-24.74 12.253-38.412.693-23.034 9.623-46.368 27.714-61.308v-2.306c-17.053 11.136-25.821 30.85-29.306 50.264-2.515 15.217-1.823 31.68-10.199 45.283-9.922 16.416-21.829 31.726-36.021 44.707-13.383 12.658-30.228 23.172-37.613 40.788-8.676 23.84 5.931 49.341-2.699 73.228-5.538 18.86-23.629 30.319-29.883 48.788-5.653 15.609-6.922 32.325-8.607 48.695-1.638 16.209 1.892 32.28 1.915 48.443-.83 40.372 8.538 79.891 14.145 119.643 2.746 21.16 9.046 41.59 13.961 62.3 6.553 32.48 12.045 65.25 20.191 97.41 3.092 12.71 3.3 25.92 2.4 38.9-1.039 13.99-6.877 27.21-6.854 41.32-.138 16.76-.969 33.77 2.931 50.21 4.523 19.63 8.423 39.87 18.737 57.48 8.654 16.05 23.076 27.65 35.536 40.58z" fill="#fff"/><path d="M287.319 1389.31c16.868 13.65 32.028 29.3 49.681 41.98v-7.31c-17.86-15.68-36.251-30.75-53.766-46.82-9.668-9.02-18.552-19.21-23.675-31.52-2.907-5.28-4.523-12.66-11.168-14.37 3.553 23.98 20.813 43.19 38.928 58.04zm12.207-8.93c11.26 11.97 25.106 21.03 37.474 31.78v-4.13c-12.53-9.18-23.468-20.64-37.474-27.65zm20.56 2.24c4.753 5.51 10.707 9.73 16.914 13.42v-2.61c-4.961-4.56-10.73-8.14-16.914-10.81zm-21.622-27.69c11.607 11.2 25.798 19.09 38.536 28.84v-4.17c-13.107-8.46-26.26-17.02-37.521-27.88-11.537-11.04-18.806-25.77-23.698-40.78-4.315-13.08-3.577-27.05-3.323-40.61.393-22.62 9.969-44.01 9.461-66.72.946-28.96-11.168-55.98-15.068-84.3-6.092-33.89-2.677-68.41-3.738-102.62-1.246-24.72-4.454-49.483-11.93-73.163-7.061-21.65-10.892-44.591-9.346-67.394.9-15.448 7.546-30.966 19.891-40.696 12.415-9.683 27.783-14.133 42.182-19.967 12.691-5.049 23.583-13.741 33.09-23.402v-2.375c-11.053 7.839-20.768 17.961-33.621 22.918-15.068 5.88-31.013 10.699-43.774 21.028-14.03 11.298-20.952 29.49-21.829 47.105-.254 24.74 5.907 48.88 13.038 72.375 12.114 40.88 8.145 83.881 9.691 125.891 0 25.91 4.315 51.69 11.33 76.59 3.646 14.16 6.715 28.59 7.384 43.23 1.016 23.57-8.745 45.84-9.461 69.24-.646 15.08-1.176 30.6 3.669 45.13 5.1 15.49 12.992 30.48 25.037 41.73z" fill="#fff"/><path d="M266.02 1320.37c8.792 26.44 28.729 48.83 53.373 61.58-7.753-9.15-18.552-14.82-26.813-23.42-12.876-13.08-21.414-29.89-26.444-47.41-4.246-14.76-3-30.27-2.908-45.42.092-20.36 9.323-39.36 9.438-59.72 1.154-19.87-4.431-39.15-8.884-58.29-5.677-23.24-9.715-47.01-9.853-70.96-.093-13.86-2.239-27.63-2.285-41.48-.092-15.5.854-31.11-1.546-46.508-3.184-25.824-12.23-50.425-16.406-76.065-4.177-24.647-5.4-51.923 7.707-74.242 11.93-18.676 34.221-25.755 53.442-34.355 16.891-6.778 30.044-19.829 42.159-32.971v-2.352c-13.476 10.837-24.76 24.925-41.143 31.634-21.068 9.592-45.944 17.362-58.127 38.736-14.053 26.238-10.269 57.664-4.777 85.724 5.7 24.694 13.153 49.111 15.299 74.474 2.377 21.145-.3 42.445 1.708 63.595 1.846 17.54 1.292 35.29 4.315 52.73 3.623 26.49 13.176 51.87 15.576 78.57 1.638 17.23-3.277 33.99-6.969 50.61-4.546 24.93-5.769 51.37 3.138 75.54zm10.038 37.19c4.407 9.73 12.922 16.85 22.083 21.97-6.023-8.53-13.73-15.75-22.083-21.97z" fill="#fff"/><path d="M317.801 1357.3c5.861 5.72 12.599 10.4 19.199 15.22v-4.66c-6.069-4.12-12.484-7.67-19.199-10.56zm-14.122-21.32c9.023 11.46 21.576 19.13 33.321 27.43v-7.05c-9.138-7.17-19.268-13.31-26.791-22.32-9.553-11.32-16.545-25.43-17.052-40.44-.439-9.32-.231-18.66.161-27.99.623-17.8 7.292-34.86 7.084-52.76 1.062-21.85-4.453-43.23-9.576-64.28-5.699-21.14-9.253-42.98-9.207-64.93.023-25.34.046-50.7.3-76.04.485-21.072-2.769-42.169-9.53-62.136-6.853-21.005-14.907-43.277-9.992-65.642 3.162-16.163 14.745-30.574 30.621-35.761 15.253-4.958 29.883-11.552 43.982-19.23v-7.447c-14.676 8.9-30.575 15.379-46.704 21.12-16.892 5.903-29.86 20.797-33.414 38.32-5.168 26.193 2.908 52.385 11.607 76.871 13.753 40.58 4.846 83.605 6.046 125.355.046 20.69 2.907 41.3 7.776 61.38 5.169 21.56 11.33 43.12 12.276 65.39 1.154 25.02-9.553 48.77-8.676 73.81-1.431 20.19 4.984 40.64 17.768 56.35z" fill="#fff"/><path d="M263.159 1339.57c2.63 6.39 6.876 11.95 11.699 16.86-9.207-18.54-18.506-37.45-21.137-58.27-4.454-23.58.069-47.61 5.884-70.53 3.831-14.71 5.031-30.22 1.823-45.17-6.253-30.48-14.514-60.73-16.799-91.88-1.361-17.64-3.207-35.25-4.292-52.91-.069-27.19-2.538-54.508-9.23-80.908-6.484-26.423-11.399-53.399-11.791-80.676 0-20.82 4.869-43.07 19.844-58.471 20.653-20.775 52.612-25.709 71.834-48.327 8.653-10.168 16.868-20.705 26.006-30.504v-4.266c-14.791 14.803-25.706 33.409-42.805 45.791-17.699 11.851-38.813 18.376-54.758 32.902-13.753 12.566-20.652 31.034-22.175 49.272-2.815 35.208 4.777 70.069 13.014 104.078 4.869 19.391 5.7 39.449 7.131 59.299.092 23.2 2.815 46.23 4.753 69.29 2.031 23.86 7.2 47.29 12.784 70.53 3.346 15.72 7.223 31.93 4.454 48.05-2.746 16.76-8.354 32.97-9.715 49.96-2.654 25.96 2.884 52.2 13.476 75.88z" fill="#fff"/><path d="M284.065 1316.24c6.784 16.12 16.845 32.23 32.79 40.6-5.653-7.24-12.622-13.28-18.229-20.5-11.584-15.56-18.391-34.86-17.122-54.36-1.569-28.16 11.007-54.9 9.161-83.03-1.8-33.73-16.199-65.27-17.953-99.03-.6-21.67-3.023-43.39-.969-65.06 2.169-23.36-.277-46.925-4.984-69.821-3.739-18.56-11.907-36.014-14.238-54.875-2.4-17.546-3.392-36.614 5.561-52.615 8.469-16.117 26.445-23.449 42.897-28.683 13.361-4.035 25.476-11.39 36.021-20.451v-2.352c-12.138 7.909-24.137 16.578-38.282 20.498-18.091 5.441-37.521 14.848-45.136 33.34-11.053 25.108-5.007 53.399 2.631 78.554 10.523 30.204 14.676 62.595 12.046 94.465-1.777 29.9-.231 59.97 4.407 89.57 3.853 24.54 13.13 47.98 14.676 72.91 2.953 25.43-7.754 49.73-8.238 74.96-.231 15.35-1.385 31.45 4.961 45.88z" fill="#fff"/><path d="M297.426 1293.48c1.315 24.44 18.783 45.08 39.574 56.49v-2.28c-11.215-9.04-23.237-17.99-29.975-31.08-7.799-13.28-7.407-29.15-6.853-44.02.369-16.67 5.93-32.92 4.43-49.71-5.446 23.04-8.33 46.92-7.176 70.6z" fill="#fff"/><path d="M307.694 1299.92c3.3 17.22 15.899 30.34 29.306 40.69v-4.22c-15.784-10.49-27.506-28.11-27.69-47.43-2.008-29.23 7.984-57.94 4.038-87.2-2.031-34.7-16.638-67.25-18.091-102.02-2.562-23.8.507-47.62.876-71.43 2.954-22.02.67-44.318-3.576-66.014-4.061-20.567-15.761-39.335-15.691-60.732-1.039-15.056 5.376-31.242 18.829-39.035 13.199-7.563 27.714-12.52 41.305-19.344v-4.474c-9.392 5.857-19.522 10.33-29.629 14.711-11.699 4.98-24.044 11.712-29.005 24.163-8.608 20.59-3 43.808 4.961 63.683 13.845 35.761 10.43 74.722 8.999 112.172-3.484 21.9-.392 43.99 2.031 65.85 3.092 23.15 11.607 45.21 14.376 68.43 1.8 14.96 3.876 30.11 1.961 45.19-2.838 22.14-6.484 44.71-3 67.01z" fill="#fff"/><path d="M242.022 1314.19c1.592 6.59 3.046 14.75 10.176 17.64-.531-9.04-3.184-17.71-5.377-26.43-4.153-16.14-4.638-33.08-2.607-49.57 2.1-17.61 9.553-34.31 9.853-52.18.485-17.45-4.915-34.24-8.745-51.04-10.292-49.37-15.622-99.59-21.091-149.67-3.3-27.041-9.438-53.648-13.43-80.579-2.7-35.415-8.746-73.689 8.099-106.706 9.069-19.183 30.183-26.792 45.874-39.312 14.676-10.514 22.937-26.976 31.429-42.355 8.699-15.448 13.476-32.602 20.583-48.742 5.653-14.872 13.153-28.89 20.214-43.093v-14.249c-6.276 11.482-11.538 23.472-17.33 35.184-10.453 21.005-16.729 43.831-27.505 64.698-8.077 15.586-15.969 32.279-30.345 43.162-15.46 12.243-35.766 19.529-45.966 37.444-15.829 27.207-16.96 60.316-13.43 90.843.785 29.075 8.954 57.181 13.2 85.818 4.361 36.657 8.491 73.367 12.991 110.027 3.669 29.35 11.215 58.01 16.822 86.99 5.146 23.52-2.4 46.81-6.346 69.79-3.069 20.73-1.269 41.9 2.931 62.33z" fill="#fff"/><path d="M316.601 1295.37c2.377 13.51 11.515 24.26 20.399 34.13v-4.41c-7.569-8.83-15.322-18.35-17.468-30.11-3.831-27.41 3.023-54.85 1.315-82.33-.531-14.05-3.253-27.86-4.246-41.85 4.754 14.98 4.869 30.96 6.415 46.5 1.985 22.97-1.707 45.98.416 68.92.9 11.23 6.069 21.58 13.568 29.88v-9.36c-3.415-6.57-7.246-13.21-7.823-20.77-1.269-14.39-1.892-28.94.185-43.28 1.638-10.82-.923-22.02 2.261-32.65.693 7.26.554 14.55.97 21.81 4.315-.85 1.546-6.8 2.353-9.87-.346-10.6-2.03-21.12-3.276-31.65-3.254-28.82-14.446-56.56-13.2-85.91-1.269-25.57 5.677-50.68 4.615-76.18-3.069-30.921-3.045-62.693-13.614-92.298-4.384-12.52-7.73-26.654-2.931-39.566 5.285-13.165 19.476-18.491 29.006-27.944-15.483 5.833-31.313 17.661-33.851 35.069-2.746 16.993 5.815 32.81 9.599 48.926 5.838 26.469 7.13 53.653 8.561 80.653.646 21.58-4.823 42.84-4.038 64.44-.854 18.66 1.638 37.15 4.592 55.5-12.184-36.34-9.323-75.46-6.484-113.07.553-33.73 2.076-68.593-9.992-100.757-5.607-15.517-11.907-33.686-3.946-49.526 8.007-13.926 24.091-19.483 37.013-27.714v-5.28c-15.807 6.133-31.59 14.756-41.72 28.705-8.238 14.803-5.285 32.994.092 48.281 15.853 41.986 15.53 88.081 9.946 132.021-1.916 22.14-.97 44.52 3.553 66.31 2.054 12.55 6.853 24.7 6.807 37.54-5.699-25.27-13.614-50.49-13.337-76.66.092-19.37-.6-38.83 1.707-58.11 1.731-25.18 1.639-50.745-4.13-75.439-3.508-18.814-14.676-35.876-13.892-55.52-.992-11.759 3.416-23.818 12.738-31.265 11.445-8.946 25.198-14.203 38.236-20.359v-4.22c-17.168 11.137-40.659 15.702-50.489 35.508-8.099 18.33-2.238 39.173 4.777 56.881 9.414 26.676 12.299 55.428 10.684 83.584a1917.216 1917.216 0 00-3.577 55.19c.646 24.47 3.161 49.02 9.645 72.7 4.731 16.72 7.615 33.9 9.023 51.21 4.776 30.74-5.031 61.59-.462 92.34zm7.084-123.12c-2.284-1.36-2.122-7.08 1.224-6.5 2.215 1.4 2.099 7.1-1.224 6.5zm-2.515-11.34c-2.146-2.7-1.592-4.22 1.662-4.57 2.123 2.7 1.569 4.22-1.662 4.57z" fill="#fff"/><path d="M332.523 1249.91c-1.2 13.67-1.061 27.87 4.477 40.67V1279c-2.008-9.82-2.215-19.8-2.538-29.76l-1.939.67zm.577-5.93c3.392-.37 3.369-8.83 0-9.22-1.915 2.53-1.915 6.68 0 9.22zm-28.567-28.91l1.846-.42c-.392-20.75-2.861-41.59-8.746-61.56-6.83-24.05-9.83-49-11.237-73.9-.877-16.25 2.353-32.32 2.284-48.55-.323-21.12 1.546-42.567-3.438-63.341-3.461-20.451-13.73-39.058-16.568-59.671-1.985-13.488-.046-27.922 7.107-39.704 5.677-9.199 15.414-14.733 25.221-18.56 12.161-4.773 24.206-9.892 35.998-15.518v-4.288c-15.345 9.822-33.228 14.318-49.15 22.895-15.207 7.955-22.222 25.685-22.684 42.056-.876 18.422 5.861 35.853 11.838 52.892 10.753 32.003 10.638 66.359 7.5 99.609-2.816 39.49 1.407 79.52 12.922 117.45 5.238 16.41 3.669 33.89 7.107 50.61zm22.729-122.5c-6.161 31.63 1.246 63.77 9.738 94.25v-14.11c-5.907-20.7-10.615-42.15-9.069-63.82.646-13.97 4.985-27.35 9.069-40.63v-19.57c-3.069 14.66-5.93 29.37-9.738 43.88z" fill="#fff"/><path d="M337 1102.94c-6.646 15.73-5.792 33.48 0 49.3v-18.1c-4.8-4.31-4.684-11.3 0-15.64v-15.56zm-15.853-148.853c5.377 31.012 7.454 62.673 15.853 93.103v-14.99c-7.338-26.95-8.007-55.102-13.753-82.355-3.369-14.802-9.853-29.859-6.138-45.26 2.4-10.584 11.907-16.947 19.891-23.265v-3.942c-10.015 7.263-20.906 15.54-23.468 28.452-3.207 16.485 4.915 32.279 7.615 48.257z" fill="#fff"/><path d="M327.655 943.066c4.222 16.486 3.53 33.894 9.345 50.01v-13.857c-2.838-14.018-4.246-28.313-7.684-42.217-1.846-7.954-4.177-16.232-2.377-24.44 1.385-7.447 6.069-13.58 10.061-19.829v-2.444c-4.984 5.142-9.992 10.653-11.976 17.731-4.292 11.551.231 23.633 2.631 35.046zM337 556.174c-4.407-.092-4.361 6.203 0 6.11v-6.11zm-4.108-4.012c3.416-.276 3.277-8.761-.115-9.038-1.961 2.467-1.892 6.618.115 9.038zm-.992-11.758c1.8-2.859 3.508-5.811 5.1-8.808v-9.776c-2.446 5.972-4.407 12.151-5.1 18.584zm-64.103-40.119c3.023 3.943 6.046 9.453 11.722 9.476 9.484 1.499 17.122-5.234 24.414-10.145 10.038-7.309 21.414-12.52 33.067-16.785v-3.851c-12.461 5.972-25.475 11.091-36.505 19.576-6.531 4.657-14.007 10.836-22.591 8.185-11.976-10.514-17.399-27.276-31.775-35.462-14.376-10.421-34.428-5.487-48.481-16.162-12.092-12.082-11.561-30.804-19.337-45.33-6.761-13.88-18.83-24.186-30.367-34.078-17.215-14.11-39.69-20.774-55.289-36.937-9.576-9.66-11.307-23.587-16.822-35.438-.208 13.857 5.815 27.069 14.745 37.398 14.884 16.186 36.967 22.504 53.904 36.038 14.469 11.782 29.421 25.132 34.959 43.6 4.869 13.396 6.254 29.928 18.622 38.966 13.592 8.001 30.852 4.957 44.42 13.165 11.423 6.087 18.391 17.339 25.314 27.784z" fill="#fff"/><path d="M297.703 461.25c11.699 7.424 26.236 4.334 39.297 4.496v-2.329c-12.345-.576-25.891 2.26-37.105-4.335-10.43-5.764-15.922-16.808-22.176-26.4-8.168-13.096-19.152-24.117-27.667-36.959-6.692-9.915-13.268-20.129-22.545-27.853-19.129-16.324-43.335-24.578-65.003-36.798-19.152-10.814-32.282-30.067-39.459-50.495-6.784-20.912-5.884-45.606-21.806-62.553 2.446 6.963 5.654 13.604 8.353 20.452 5.677 14.272 5.815 30.019 11.192 44.384 7.707 20.774 21.206 40.349 41.005 51.186 21.714 11.966 45.643 20.497 64.772 36.706 9.807 8.278 16.015 19.644 23.376 29.928 8.122 11.736 18.345 21.881 25.729 34.147 6.045 9.73 11.86 20.382 22.037 26.423zm19.891-35.992c4.776 7.724 12.276 13.004 19.406 18.353v-3.781c-9.046-6.179-16.707-14.226-21.714-24.025-10.176-19.091-23.537-36.176-36.528-53.399-12.299-15.864-25.106-31.934-42.136-42.978-16.545-10.929-36.39-18.215-48.389-34.839-9.968-12.289-14.63-27.875-16.153-43.439-1.846-14.341-.576-29.881-8.145-42.816-8.884-14.088-25.729-20.636-34.705-34.654-7.846-12.497-10.707-28.637-5.469-42.678 4.961-13.788 13.222-27.184 12.253-42.379-1.269-16.716-10.915-30.988-20.007-44.476C108.623 23.172 102.093 11.667 95.886 0h-3.97c9.115 14.895 17.399 30.297 27.483 44.592 8.238 11.62 14.122 25.523 13.223 40.026-.808 15.517-10.731 28.406-13.892 43.324-2.677 11.989.946 24.463 6.623 35.046 9.069 16.647 29.329 23.449 37.866 40.488 6.6 15.102 4.062 32.025 7.246 47.842 2.838 17.731 12.322 34.055 25.821 45.791 14.699 12.981 33.875 19.391 48.689 32.21 19.961 17.27 34.706 39.427 50.512 60.317 8.538 11.113 14.607 23.817 22.107 35.622z" fill="#fff"/><path d="M290.688 313.548c15.76 19.437 27.898 41.848 46.312 59.095v-7.401c-6.23-9.292-14.007-17.408-20.376-26.585-7.914-11.275-15.137-23.149-24.759-33.109-16.384-17.662-38.052-29.375-54.32-47.151-7.061-7.609-11.93-17.178-13.868-27.392-2.608-12.243-1.015-25.454-6.646-36.983-6.392-13.211-17.422-23.748-22.291-37.767-5.584-16.347-13.983-32.74-11.906-50.517.784-13.304 6.507-26.584 2.907-39.934-5.33-23.426-20.283-43-27.321-65.804h-7.015c6.899 21.466 20.491 40.096 26.652 61.815 4.477 15.333.208 31.127-.946 46.598-1.546 17.753 6.761 34.124 12.161 50.54 4.522 14.18 15.783 24.556 22.267 37.675 6.761 16.877 2.585 36.522 11.861 52.661 15.922 27.622 47.166 40.488 67.288 64.259zm-216.17-12.75c3.3.461 3.323-5.234 1.2-6.733-3.323-.438-3.37 5.304-1.2 6.733zm-24.575-78.37c14.214 20.451 18.644 45.399 24.967 68.94-.138-12.474-2.307-24.901-6.692-36.614-5.607-14.872-10.937-30.62-22.521-42.056-11.676-11.39-22.268-23.84-33.621-35.553-5.954-5.833-10.246-13.903-9.276-22.457 1.476-11.736 7.36-22.435 13.845-32.141 7.015-10.514 18.322-18.4 22.198-30.827 2.815-12.935-3.576-25.294-8.122-37.03C22.575 36.13 17.614 15.563 3.907 0H1.6c8.93 13.004 15.83 27.23 20.952 42.148C27.675 56.95 36.56 71.153 36.674 87.223c-2.261 14.388-15.783 22.735-22.937 34.539-7.13 11.759-15.16 24.856-13.522 39.174 1.8 13.557 13.984 21.627 22.268 31.288 8.86 10.329 19.037 19.506 27.46 30.204zm262.251 30.596c8.561 7.955 16.753 16.279 24.806 24.717v-4.403c-10.892-11.829-22.729-22.711-35.005-33.064-10.015-8.738-19.868-18.699-23.768-31.795-3.692-11.782-7.292-23.725-13.891-34.262-11.238-19.414-20.722-40.165-25.452-62.161-3.693-16.186 3.369-32.464.276-48.65C235.191 41.41 225.777 20.982 218.462 0h-3.9c8.1 18.883 15.737 38.136 20.491 58.172 5.03 19.137-3.023 38.874 1.661 58.08 5.769 23.379 16.522 45.26 28.545 66.011 7.638 13.419 8.676 29.697 17.722 42.402 7.868 11.228 19.291 19.137 29.213 28.359zM58.273 170.205c7.015 20.497 24.39 35 41.397 47.312-5.123-7.424-11.907-13.442-18.714-19.275-11.838-10.076-20.26-24.325-22.683-39.75-1.823-14.203 3.784-28.498 12.645-39.45 6.277-8.485 14.607-16.324 16.891-27.023 1.662-14.48-6.346-27.622-13.314-39.657C64.157 35.646 56.08 17.707 47.658 0h-3.946c9.6 17.523 17.33 36.06 27.852 53.1 6.484 11.274 14.122 23.172 13.73 36.66-2.054 11.966-11.791 20.359-18.506 29.858-11.053 14.042-14.861 33.732-8.515 50.587z" fill="#fff"/></symbol></svg>